<svg width="343" height="343" viewBox="0 0 343 343" fill="none" xmlns="http://www.w3.org/2000/svg">
<g filter="url(#filter0_bd_1_487)">
<path d="M168.501 35.4566C170.095 33.8631 172.68 33.8631 174.274 35.4566L174.395 35.5771C175.869 37.0498 178.215 37.177 179.839 35.8723L179.972 35.7655C181.729 34.3538 184.299 34.6332 185.712 36.3898L185.818 36.5226C187.124 38.146 189.443 38.5261 191.199 37.4046L191.342 37.3129C193.242 36.0995 195.766 36.655 196.981 38.554L197.073 38.6976C198.196 40.4527 200.459 41.0813 202.326 40.1562L202.479 40.0806C204.499 39.0797 206.948 39.9048 207.95 41.9241L208.026 42.0767C208.953 43.9429 211.135 44.8126 213.091 44.0948L213.251 44.0361C215.368 43.2595 217.713 44.3446 218.491 46.4603L218.55 46.6203C219.269 48.5757 221.345 49.6762 223.367 49.1742L223.532 49.1331C225.72 48.5899 227.935 49.9221 228.48 52.1096L228.521 52.2751C229.024 54.2968 230.969 55.6153 233.034 55.3348L233.202 55.3118C235.436 55.0083 237.493 56.5722 237.799 58.8058L237.822 58.9747C238.104 61.039 239.894 62.56 241.977 62.5044L242.148 62.4999C244.401 62.4397 246.277 64.2168 246.339 66.4703L246.344 66.6407C246.401 68.7234 248.017 70.4291 250.093 70.599L250.263 70.6129C252.51 70.7967 254.183 72.7663 254.001 75.0132L253.987 75.1831C253.819 77.2598 255.241 79.1302 257.287 79.5236L257.454 79.5558C259.668 79.9815 261.118 82.1204 260.694 84.3345L260.662 84.5019C260.27 86.5482 261.482 88.5614 263.473 89.1737L263.636 89.2238C265.791 89.8863 267.001 92.1694 266.34 94.3247L266.29 94.4877C265.68 96.4796 266.666 98.612 268.58 99.436L268.736 99.5034C270.807 100.395 271.763 102.796 270.873 104.867L270.806 105.024C269.983 106.938 270.734 109.164 272.547 110.19L272.695 110.274C274.657 111.385 275.348 113.875 274.24 115.837L274.156 115.986C273.131 117.8 273.636 120.094 275.328 121.311L275.466 121.41C277.297 122.726 277.715 125.276 276.4 127.107L276.301 127.246C275.086 128.939 275.34 131.274 276.891 132.666L277.017 132.78C278.695 134.286 278.835 136.867 277.33 138.545L277.216 138.672C275.825 140.223 275.825 142.573 277.216 144.124L277.33 144.251C278.835 145.93 278.695 148.51 277.017 150.016L276.891 150.13C275.34 151.522 275.086 153.858 276.301 155.55L276.4 155.689C277.715 157.52 277.297 160.071 275.466 161.386L275.328 161.486C273.636 162.702 273.131 164.997 274.156 166.811L274.24 166.959C275.348 168.922 274.657 171.412 272.695 172.522L272.547 172.606C270.734 173.632 269.983 175.859 270.806 177.773L270.873 177.929C271.763 180.001 270.807 182.401 268.736 183.293L268.58 183.36C266.666 184.184 265.68 186.317 266.29 188.309L266.34 188.472C267.001 190.627 265.791 192.91 263.636 193.573L263.473 193.623C261.482 194.235 260.27 196.248 260.662 198.294L260.694 198.462C261.118 200.676 259.668 202.815 257.454 203.241L257.287 203.273C255.241 203.666 253.819 205.537 253.987 207.613L254.001 207.783C254.183 210.03 252.51 212 250.263 212.184L250.093 212.197C248.017 212.367 246.401 214.073 246.344 216.156L246.339 216.326C246.277 218.58 244.401 220.357 242.148 220.297L241.977 220.292C239.894 220.236 238.104 221.757 237.822 223.822L237.799 223.991C237.493 226.224 235.436 227.788 233.202 227.485L233.034 227.462C230.969 227.181 229.024 228.5 228.521 230.521L228.48 230.687C227.935 232.874 225.72 234.207 223.532 233.663L223.367 233.622C221.345 233.12 219.269 234.221 218.55 236.176L218.491 236.336C217.713 238.452 215.368 239.537 213.251 238.76L213.091 238.702C211.135 237.984 208.953 238.853 208.026 240.72L207.95 240.872C206.948 242.892 204.499 243.717 202.479 242.716L202.326 242.64C200.459 241.715 198.196 242.344 197.073 244.099L196.981 244.242C195.766 246.141 193.242 246.697 191.342 245.483L191.199 245.392C189.443 244.27 187.124 244.65 185.818 246.274L185.712 246.407C184.299 248.163 181.729 248.443 179.972 247.031L179.839 246.924C178.215 245.619 175.869 245.747 174.395 247.219L174.274 247.34C172.68 248.933 170.095 248.933 168.501 247.34L168.38 247.219C166.906 245.747 164.56 245.619 162.936 246.924L162.803 247.031C161.045 248.443 158.476 248.163 157.063 246.407L156.956 246.274C155.651 244.65 153.332 244.27 151.576 245.392L151.432 245.483C149.532 246.697 147.009 246.141 145.794 244.242L145.702 244.099C144.579 242.344 142.315 241.715 140.448 242.64L140.296 242.716C138.276 243.717 135.827 242.892 134.824 240.872L134.749 240.72C133.822 238.853 131.64 237.984 129.684 238.702L129.524 238.76C127.407 239.537 125.062 238.452 124.284 236.336L124.225 236.176C123.506 234.221 121.43 233.12 119.408 233.622L119.242 233.663C117.054 234.207 114.84 232.874 114.295 230.687L114.254 230.521C113.751 228.5 111.806 227.181 109.741 227.462L109.572 227.485C107.339 227.788 105.281 226.224 104.976 223.991L104.953 223.822C104.671 221.757 102.88 220.236 100.798 220.292L100.627 220.297C98.3737 220.357 96.4976 218.58 96.4357 216.326L96.431 216.156C96.3738 214.073 94.758 212.367 92.6815 212.197L92.5116 212.184C90.2648 212 88.5918 210.03 88.7739 207.783L88.7877 207.613C88.956 205.537 87.5341 203.666 85.4881 203.273L85.3207 203.241C83.1069 202.815 81.6567 200.676 82.0807 198.462L82.1128 198.294C82.5046 196.248 81.2933 194.235 79.3019 193.623L79.1389 193.573C76.9841 192.91 75.7737 190.627 76.4346 188.472L76.4845 188.309C77.0953 186.317 76.1088 184.184 74.1952 183.36L74.0386 183.293C71.9681 182.401 71.0116 180.001 71.9017 177.929L71.969 177.773C72.7915 175.859 72.0413 173.632 70.228 172.606L70.0797 172.522C68.1177 171.412 67.4263 168.922 68.5351 166.959L68.619 166.811C69.6437 164.997 69.1386 162.702 67.4469 161.486L67.3085 161.386C65.478 160.071 65.0599 157.52 66.3744 155.689L66.4738 155.55C67.6887 153.858 67.4346 151.522 65.8843 150.13L65.7575 150.016C64.08 148.51 63.9401 145.93 65.4449 144.251L65.5587 144.124C66.9494 142.573 66.9494 140.223 65.5587 138.672L65.4449 138.545C63.9401 136.867 64.08 134.286 65.7575 132.78L65.8843 132.666C67.4346 131.274 67.6887 128.939 66.4738 127.246L66.3744 127.107C65.0599 125.276 65.478 122.726 67.3085 121.41L67.4469 121.311C69.1386 120.094 69.6437 117.8 68.619 115.986L68.5351 115.837C67.4264 113.875 68.1177 111.385 70.0797 110.274L70.228 110.19C72.0413 109.164 72.7915 106.938 71.969 105.024L71.9017 104.867C71.0116 102.796 71.9681 100.395 74.0386 99.5034L74.1952 99.436C76.1088 98.612 77.0953 96.4796 76.4845 94.4877L76.4346 94.3247C75.7737 92.1694 76.9841 89.8863 79.1389 89.2238L79.3019 89.1737C81.2933 88.5614 82.5046 86.5482 82.1128 84.5019L82.0807 84.3345C81.6567 82.1204 83.1069 79.9815 85.3207 79.5558L85.4881 79.5236C87.5341 79.1302 88.956 77.2598 88.7877 75.1831L88.7739 75.0132C88.5918 72.7663 90.2648 70.7967 92.5116 70.6129L92.6815 70.599C94.758 70.4291 96.3738 68.7234 96.431 66.6407L96.4357 66.4703C96.4976 64.2168 98.3737 62.4397 100.627 62.4999L100.798 62.5044C102.88 62.56 104.671 61.039 104.953 58.9747L104.976 58.8058C105.281 56.5722 107.339 55.0083 109.572 55.3118L109.741 55.3348C111.806 55.6153 113.751 54.2968 114.254 52.2751L114.295 52.1097C114.84 49.9222 117.054 48.5899 119.242 49.1331L119.408 49.1742C121.43 49.6762 123.506 48.5757 124.225 46.6203L124.284 46.4603C125.062 44.3446 127.407 43.2595 129.524 44.0361L129.684 44.0948C131.64 44.8126 133.822 43.9429 134.749 42.0767L134.824 41.9241C135.827 39.9048 138.276 39.0797 140.296 40.0806L140.448 40.1562C142.315 41.0813 144.579 40.4527 145.702 38.6976L145.794 38.554C147.009 36.655 149.532 36.0995 151.432 37.3129L151.576 37.4046C153.332 38.5261 155.651 38.146 156.956 36.5226L157.063 36.3898C158.476 34.6332 161.045 34.3538 162.803 35.7655L162.936 35.8723C164.56 37.177 166.906 37.0498 168.38 35.5771L168.501 35.4566Z" fill="url(#paint0_linear_1_487)"/>
<path d="M257.73 132.54L258.963 135.872L262.295 137.105L258.963 138.339L257.73 141.671L256.497 138.339L253.164 137.105L256.497 135.872L257.73 132.54Z" fill="white" fill-opacity="0.8"/>
<path d="M89.5169 132.54L90.75 135.872L94.0825 137.105L90.75 138.339L89.5169 141.671L88.2838 138.339L84.9513 137.105L88.2838 135.872L89.5169 132.54Z" fill="white" fill-opacity="0.8"/>
<path d="M246.301 139.711C246.301 180.21 213.47 213.041 172.972 213.041C132.473 213.041 99.6425 180.21 99.6425 139.711C99.6425 99.2127 132.473 66.3821 172.972 66.3821C213.47 66.3821 246.301 99.2127 246.301 139.711Z" stroke="white" stroke-opacity="0.3" stroke-width="0.729963"/>
<path d="M270.352 139.711C270.352 193.494 226.752 237.093 172.97 237.093C119.187 237.093 75.5874 193.494 75.5874 139.711C75.5874 85.9284 119.187 42.3288 172.97 42.3288C226.752 42.3288 270.352 85.9284 270.352 139.711Z" stroke="white" stroke-opacity="0.3" stroke-width="0.729963"/>
<path d="M154.156 124.423C152.625 124.423 151.263 124.175 150.069 123.677C148.883 123.174 147.952 122.488 147.275 121.619C146.599 120.751 146.261 119.766 146.261 118.666C146.261 117.818 146.453 117.039 146.838 116.329C147.229 115.614 147.759 115.02 148.429 114.55C149.098 114.072 149.847 113.767 150.676 113.635V113.496C149.589 113.277 148.707 112.75 148.031 111.915C147.355 111.073 147.017 110.095 147.017 108.981C147.017 107.927 147.325 106.989 147.942 106.168C148.558 105.339 149.403 104.689 150.477 104.219C151.558 103.741 152.784 103.503 154.156 103.503C155.528 103.503 156.751 103.741 157.825 104.219C158.906 104.696 159.754 105.349 160.371 106.177C160.987 106.999 161.299 107.934 161.305 108.981C161.299 110.102 160.954 111.079 160.271 111.915C159.588 112.75 158.713 113.277 157.646 113.496V113.635C158.461 113.767 159.201 114.072 159.863 114.55C160.533 115.02 161.063 115.614 161.454 116.329C161.852 117.039 162.054 117.818 162.061 118.666C162.054 119.766 161.713 120.751 161.037 121.619C160.361 122.488 159.426 123.174 158.233 123.677C157.046 124.175 155.687 124.423 154.156 124.423ZM154.156 121.261C154.839 121.261 155.435 121.139 155.946 120.893C156.456 120.641 156.854 120.297 157.139 119.859C157.431 119.415 157.577 118.905 157.577 118.328C157.577 117.738 157.427 117.218 157.129 116.767C156.831 116.31 156.426 115.952 155.916 115.693C155.406 115.428 154.819 115.295 154.156 115.295C153.5 115.295 152.913 115.428 152.396 115.693C151.879 115.952 151.471 116.31 151.173 116.767C150.881 117.218 150.736 117.738 150.736 118.328C150.736 118.905 150.878 119.415 151.163 119.859C151.448 120.297 151.849 120.641 152.366 120.893C152.883 121.139 153.48 121.261 154.156 121.261ZM154.156 112.163C154.726 112.163 155.233 112.047 155.677 111.815C156.122 111.583 156.47 111.262 156.721 110.851C156.973 110.44 157.099 109.966 157.099 109.429C157.099 108.899 156.973 108.435 156.721 108.037C156.47 107.632 156.125 107.318 155.687 107.092C155.25 106.86 154.739 106.744 154.156 106.744C153.579 106.744 153.069 106.86 152.625 107.092C152.181 107.318 151.833 107.632 151.581 108.037C151.336 108.435 151.213 108.899 151.213 109.429C151.213 109.966 151.339 110.44 151.591 110.851C151.843 111.262 152.191 111.583 152.635 111.815C153.079 112.047 153.586 112.163 154.156 112.163ZM173.056 124.592C171.345 124.586 169.874 124.165 168.641 123.329C167.414 122.494 166.47 121.284 165.807 119.7C165.151 118.116 164.826 116.21 164.833 113.983C164.833 111.762 165.161 109.87 165.817 108.305C166.48 106.741 167.424 105.551 168.651 104.736C169.884 103.914 171.352 103.503 173.056 103.503C174.759 103.503 176.224 103.914 177.45 104.736C178.683 105.558 179.631 106.751 180.294 108.315C180.957 109.873 181.285 111.762 181.279 113.983C181.279 116.217 180.947 118.126 180.284 119.71C179.628 121.294 178.687 122.504 177.46 123.339C176.234 124.175 174.766 124.592 173.056 124.592ZM173.056 121.023C174.222 121.023 175.154 120.436 175.85 119.263C176.546 118.089 176.89 116.329 176.884 113.983C176.884 112.438 176.725 111.152 176.406 110.125C176.095 109.097 175.651 108.325 175.074 107.808C174.504 107.291 173.831 107.033 173.056 107.033C171.896 107.033 170.967 107.613 170.271 108.773C169.575 109.933 169.224 111.669 169.217 113.983C169.217 115.547 169.373 116.853 169.685 117.9C170.003 118.941 170.45 119.723 171.027 120.247C171.604 120.764 172.28 121.023 173.056 121.023ZM190.434 121.043V106.963H193.993V121.043H190.434ZM185.174 115.783V112.223H199.253V115.783H185.174ZM111.269 151.145V130.781H119.422C120.92 130.781 122.17 131.003 123.171 131.447C124.172 131.891 124.924 132.508 125.428 133.297C125.932 134.079 126.183 134.98 126.183 136.001C126.183 136.797 126.024 137.496 125.706 138.099C125.388 138.696 124.95 139.186 124.394 139.571C123.843 139.949 123.214 140.217 122.504 140.376V140.575C123.28 140.608 124.006 140.827 124.682 141.231C125.365 141.636 125.918 142.203 126.342 142.932C126.767 143.654 126.979 144.516 126.979 145.517C126.979 146.597 126.71 147.562 126.173 148.41C125.643 149.252 124.858 149.918 123.817 150.409C122.776 150.9 121.494 151.145 119.969 151.145H111.269ZM115.574 147.625H119.084C120.284 147.625 121.159 147.396 121.709 146.939C122.259 146.475 122.534 145.858 122.534 145.089C122.534 144.526 122.398 144.029 122.127 143.598C121.855 143.167 121.467 142.829 120.963 142.584C120.466 142.338 119.873 142.216 119.183 142.216H115.574V147.625ZM115.574 139.302H118.766C119.356 139.302 119.879 139.2 120.337 138.994C120.801 138.782 121.165 138.484 121.431 138.099C121.702 137.715 121.838 137.254 121.838 136.717C121.838 135.981 121.576 135.388 121.053 134.937C120.536 134.487 119.8 134.261 118.845 134.261H115.574V139.302ZM136.601 151.443C135.057 151.443 133.721 151.115 132.594 150.459C131.474 149.796 130.609 148.874 129.999 147.694C129.389 146.508 129.084 145.132 129.084 143.568C129.084 141.99 129.389 140.612 129.999 139.432C130.609 138.245 131.474 137.324 132.594 136.668C133.721 136.005 135.057 135.673 136.601 135.673C138.146 135.673 139.478 136.005 140.599 136.668C141.725 137.324 142.594 138.245 143.204 139.432C143.813 140.612 144.118 141.99 144.118 143.568C144.118 145.132 143.813 146.508 143.204 147.694C142.594 148.874 141.725 149.796 140.599 150.459C139.478 151.115 138.146 151.443 136.601 151.443ZM136.621 148.162C137.324 148.162 137.911 147.963 138.381 147.565C138.852 147.161 139.206 146.611 139.445 145.915C139.69 145.219 139.813 144.426 139.813 143.538C139.813 142.65 139.69 141.858 139.445 141.162C139.206 140.466 138.852 139.916 138.381 139.511C137.911 139.107 137.324 138.905 136.621 138.905C135.912 138.905 135.315 139.107 134.831 139.511C134.354 139.916 133.993 140.466 133.748 141.162C133.509 141.858 133.39 142.65 133.39 143.538C133.39 144.426 133.509 145.219 133.748 145.915C133.993 146.611 134.354 147.161 134.831 147.565C135.315 147.963 135.912 148.162 136.621 148.162ZM153.773 151.443C152.229 151.443 150.893 151.115 149.766 150.459C148.646 149.796 147.781 148.874 147.171 147.694C146.561 146.508 146.256 145.132 146.256 143.568C146.256 141.99 146.561 140.612 147.171 139.432C147.781 138.245 148.646 137.324 149.766 136.668C150.893 136.005 152.229 135.673 153.773 135.673C155.318 135.673 156.65 136.005 157.77 136.668C158.897 137.324 159.766 138.245 160.376 139.432C160.985 140.612 161.29 141.99 161.29 143.568C161.29 145.132 160.985 146.508 160.376 147.694C159.766 148.874 158.897 149.796 157.77 150.459C156.65 151.115 155.318 151.443 153.773 151.443ZM153.793 148.162C154.496 148.162 155.082 147.963 155.553 147.565C156.024 147.161 156.378 146.611 156.617 145.915C156.862 145.219 156.985 144.426 156.985 143.538C156.985 142.65 156.862 141.858 156.617 141.162C156.378 140.466 156.024 139.916 155.553 139.511C155.082 139.107 154.496 138.905 153.793 138.905C153.084 138.905 152.487 139.107 152.003 139.511C151.526 139.916 151.165 140.466 150.92 141.162C150.681 141.858 150.562 142.65 150.562 143.538C150.562 144.426 150.681 145.219 150.92 145.915C151.165 146.611 151.526 147.161 152.003 147.565C152.487 147.963 153.084 148.162 153.793 148.162ZM167.883 146.75L167.893 141.669H168.509L173.401 135.872H178.263L171.691 143.548H170.687L167.883 146.75ZM164.045 151.145V130.781H168.28V151.145H164.045ZM173.59 151.145L169.096 144.493L171.92 141.5L178.552 151.145H173.59ZM180.341 151.145V135.872H184.577V151.145H180.341ZM182.469 133.903C181.84 133.903 181.299 133.694 180.849 133.277C180.404 132.853 180.182 132.346 180.182 131.756C180.182 131.172 180.404 130.672 180.849 130.254C181.299 129.83 181.84 129.618 182.469 129.618C183.099 129.618 183.636 129.83 184.08 130.254C184.531 130.672 184.756 131.172 184.756 131.756C184.756 132.346 184.531 132.853 184.08 133.277C183.636 133.694 183.099 133.903 182.469 133.903ZM192.206 142.315V151.145H187.97V135.872H192.007V138.567H192.186C192.524 137.678 193.091 136.976 193.887 136.459C194.682 135.935 195.646 135.673 196.78 135.673C197.841 135.673 198.765 135.905 199.554 136.369C200.343 136.833 200.956 137.496 201.394 138.358C201.831 139.213 202.05 140.234 202.05 141.42V151.145H197.814V142.176C197.821 141.241 197.582 140.512 197.098 139.989C196.614 139.458 195.948 139.193 195.1 139.193C194.53 139.193 194.026 139.316 193.588 139.561C193.157 139.806 192.819 140.164 192.574 140.635C192.335 141.099 192.213 141.659 192.206 142.315ZM212.269 157.19C210.897 157.19 209.72 157.001 208.739 156.623C207.765 156.252 206.989 155.745 206.412 155.102C205.836 154.459 205.461 153.737 205.289 152.935L209.206 152.408C209.326 152.712 209.515 152.998 209.773 153.263C210.032 153.528 210.373 153.74 210.797 153.899C211.228 154.065 211.752 154.148 212.368 154.148C213.29 154.148 214.049 153.922 214.645 153.471C215.249 153.027 215.55 152.282 215.55 151.234V148.44H215.371C215.186 148.864 214.907 149.266 214.536 149.643C214.165 150.021 213.688 150.329 213.104 150.568C212.521 150.807 211.825 150.926 211.016 150.926C209.869 150.926 208.825 150.661 207.884 150.131C206.949 149.594 206.204 148.775 205.647 147.675C205.097 146.568 204.822 145.169 204.822 143.479C204.822 141.748 205.103 140.303 205.667 139.143C206.23 137.983 206.979 137.115 207.914 136.538C208.855 135.962 209.886 135.673 211.006 135.673C211.861 135.673 212.577 135.819 213.154 136.111C213.731 136.396 214.195 136.754 214.546 137.185C214.904 137.609 215.179 138.026 215.371 138.437H215.53V135.872H219.736V151.294C219.736 152.593 219.418 153.68 218.782 154.555C218.145 155.43 217.264 156.087 216.137 156.524C215.017 156.968 213.727 157.19 212.269 157.19ZM212.358 147.744C213.041 147.744 213.618 147.575 214.089 147.237C214.566 146.892 214.93 146.402 215.182 145.766C215.441 145.123 215.57 144.354 215.57 143.459C215.57 142.564 215.444 141.788 215.192 141.132C214.94 140.469 214.576 139.955 214.099 139.591C213.621 139.226 213.041 139.044 212.358 139.044C211.662 139.044 211.076 139.233 210.599 139.611C210.121 139.982 209.76 140.499 209.515 141.162C209.269 141.825 209.147 142.59 209.147 143.459C209.147 144.34 209.269 145.103 209.515 145.746C209.767 146.382 210.128 146.876 210.599 147.227C211.076 147.572 211.662 147.744 212.358 147.744ZM235.814 140.227L231.937 140.466C231.87 140.134 231.728 139.836 231.509 139.571C231.29 139.299 231.002 139.084 230.644 138.925C230.293 138.759 229.872 138.676 229.381 138.676C228.725 138.676 228.171 138.815 227.721 139.094C227.27 139.365 227.045 139.73 227.045 140.187C227.045 140.552 227.19 140.86 227.482 141.112C227.774 141.364 228.274 141.566 228.983 141.719L231.748 142.275C233.233 142.58 234.34 143.071 235.069 143.747C235.798 144.423 236.162 145.311 236.162 146.412C236.162 147.413 235.867 148.291 235.278 149.047C234.694 149.802 233.892 150.392 232.871 150.817C231.857 151.234 230.687 151.443 229.361 151.443C227.34 151.443 225.729 151.022 224.529 150.18C223.336 149.332 222.636 148.178 222.431 146.72L226.597 146.501C226.723 147.118 227.028 147.588 227.512 147.913C227.996 148.231 228.616 148.391 229.371 148.391C230.114 148.391 230.71 148.248 231.161 147.963C231.618 147.671 231.85 147.297 231.857 146.839C231.85 146.455 231.688 146.14 231.37 145.895C231.052 145.643 230.561 145.451 229.898 145.318L227.253 144.791C225.762 144.493 224.652 143.976 223.922 143.24C223.2 142.504 222.839 141.566 222.839 140.426C222.839 139.445 223.104 138.6 223.634 137.891C224.171 137.181 224.923 136.634 225.891 136.25C226.866 135.865 228.006 135.673 229.312 135.673C231.241 135.673 232.759 136.081 233.866 136.896C234.979 137.712 235.629 138.822 235.814 140.227ZM149.053 167.227L145.175 167.466C145.109 167.134 144.966 166.836 144.747 166.571C144.529 166.299 144.24 166.084 143.882 165.925C143.531 165.759 143.11 165.676 142.619 165.676C141.963 165.676 141.41 165.815 140.959 166.094C140.508 166.365 140.283 166.73 140.283 167.187C140.283 167.552 140.429 167.86 140.72 168.112C141.012 168.364 141.512 168.566 142.222 168.719L144.986 169.275C146.471 169.58 147.578 170.071 148.307 170.747C149.036 171.423 149.401 172.311 149.401 173.412C149.401 174.413 149.106 175.291 148.516 176.047C147.932 176.802 147.13 177.392 146.11 177.817C145.095 178.234 143.925 178.443 142.6 178.443C140.578 178.443 138.967 178.022 137.767 177.18C136.574 176.332 135.875 175.178 135.669 173.72L139.835 173.501C139.961 174.118 140.266 174.588 140.75 174.913C141.234 175.231 141.854 175.391 142.61 175.391C143.352 175.391 143.949 175.248 144.399 174.963C144.857 174.671 145.089 174.297 145.095 173.839C145.089 173.455 144.926 173.14 144.608 172.895C144.29 172.643 143.799 172.451 143.137 172.318L140.492 171.791C139 171.493 137.89 170.976 137.161 170.24C136.438 169.504 136.077 168.566 136.077 167.426C136.077 166.445 136.342 165.6 136.872 164.891C137.409 164.181 138.162 163.634 139.129 163.25C140.104 162.865 141.244 162.673 142.55 162.673C144.479 162.673 145.997 163.081 147.104 163.896C148.217 164.712 148.867 165.822 149.053 167.227ZM158.969 178.443C157.424 178.443 156.088 178.115 154.961 177.459C153.841 176.796 152.976 175.874 152.366 174.694C151.756 173.508 151.452 172.132 151.452 170.568C151.452 168.99 151.756 167.612 152.366 166.432C152.976 165.245 153.841 164.324 154.961 163.668C156.088 163.005 157.424 162.673 158.969 162.673C160.513 162.673 161.845 163.005 162.966 163.668C164.093 164.324 164.961 165.245 165.571 166.432C166.181 167.612 166.486 168.99 166.486 170.568C166.486 172.132 166.181 173.508 165.571 174.694C164.961 175.874 164.093 176.796 162.966 177.459C161.845 178.115 160.513 178.443 158.969 178.443ZM158.988 175.162C159.691 175.162 160.278 174.963 160.748 174.565C161.219 174.161 161.574 173.611 161.812 172.915C162.058 172.219 162.18 171.426 162.18 170.538C162.18 169.65 162.058 168.858 161.812 168.162C161.574 167.466 161.219 166.916 160.748 166.511C160.278 166.107 159.691 165.905 158.988 165.905C158.279 165.905 157.683 166.107 157.199 166.511C156.721 166.916 156.36 167.466 156.115 168.162C155.876 168.858 155.757 169.65 155.757 170.538C155.757 171.426 155.876 172.219 156.115 172.915C156.36 173.611 156.721 174.161 157.199 174.565C157.683 174.963 158.279 175.162 158.988 175.162ZM183.933 162.872V166.054H174.507V162.872H183.933ZM176.665 178.145V161.768C176.665 160.661 176.88 159.743 177.311 159.014C177.749 158.285 178.345 157.738 179.101 157.373C179.857 157.009 180.715 156.827 181.676 156.827C182.326 156.827 182.919 156.876 183.456 156.976C184 157.075 184.404 157.165 184.669 157.244L183.914 160.426C183.748 160.373 183.542 160.323 183.297 160.277C183.058 160.23 182.813 160.207 182.561 160.207C181.938 160.207 181.504 160.353 181.259 160.645C181.013 160.93 180.891 161.331 180.891 161.848V178.145H176.665ZM190.329 178.433C189.355 178.433 188.487 178.264 187.724 177.926C186.962 177.581 186.359 177.074 185.915 176.405C185.477 175.729 185.258 174.887 185.258 173.879C185.258 173.031 185.414 172.318 185.726 171.741C186.037 171.165 186.461 170.701 186.998 170.349C187.535 169.998 188.145 169.733 188.828 169.554C189.517 169.375 190.24 169.249 190.996 169.176C191.884 169.083 192.6 168.997 193.143 168.918C193.687 168.831 194.081 168.705 194.327 168.54C194.572 168.374 194.694 168.129 194.694 167.804V167.744C194.694 167.114 194.496 166.627 194.098 166.283C193.707 165.938 193.15 165.766 192.427 165.766C191.665 165.766 191.059 165.935 190.608 166.273C190.157 166.604 189.859 167.022 189.713 167.525L185.795 167.207C185.994 166.279 186.385 165.477 186.969 164.801C187.552 164.118 188.304 163.595 189.226 163.23C190.154 162.859 191.228 162.673 192.447 162.673C193.296 162.673 194.108 162.773 194.883 162.971C195.666 163.17 196.358 163.479 196.961 163.896C197.571 164.314 198.052 164.851 198.403 165.507C198.755 166.157 198.93 166.935 198.93 167.844V178.145H194.913V176.027H194.794C194.549 176.504 194.22 176.925 193.809 177.29C193.398 177.648 192.905 177.929 192.328 178.135C191.751 178.334 191.085 178.433 190.329 178.433ZM191.542 175.51C192.166 175.51 192.716 175.387 193.193 175.142C193.67 174.89 194.045 174.552 194.317 174.128C194.588 173.703 194.724 173.223 194.724 172.686V171.065C194.592 171.151 194.409 171.231 194.177 171.304C193.952 171.37 193.697 171.433 193.412 171.493C193.127 171.546 192.842 171.596 192.557 171.642C192.272 171.682 192.013 171.718 191.781 171.751C191.284 171.824 190.85 171.94 190.479 172.099C190.107 172.258 189.819 172.474 189.613 172.746C189.408 173.011 189.305 173.342 189.305 173.74C189.305 174.317 189.514 174.757 189.932 175.062C190.356 175.361 190.893 175.51 191.542 175.51ZM202.216 178.145V162.872H206.323V165.537H206.482C206.76 164.589 207.228 163.873 207.884 163.389C208.54 162.899 209.296 162.653 210.151 162.653C210.363 162.653 210.592 162.667 210.837 162.693C211.082 162.72 211.298 162.756 211.483 162.802V166.561C211.285 166.501 211.01 166.448 210.658 166.402C210.307 166.355 209.985 166.332 209.694 166.332C209.071 166.332 208.514 166.468 208.023 166.74C207.539 167.005 207.155 167.376 206.87 167.854C206.591 168.331 206.452 168.881 206.452 169.504V178.145H202.216Z" fill="url(#paint1_linear_1_487)" fill-opacity="0.9"/>
<path d="M88.1134 123.212L88.3145 122.201L92.1195 120.857L92.1365 120.771L89.1361 118.073L89.3372 117.062L93.0985 120.548L96.1026 121.146L95.9269 122.029L92.9229 121.431L88.1134 123.212Z" fill="white"/>
<path d="M96.7773 118.334L89.6104 116.365L90.7986 112.04L91.5685 112.251L90.6187 115.709L93.0403 116.374L93.9286 113.141L94.6985 113.352L93.8102 116.586L96.2458 117.255L97.211 113.741L97.9809 113.953L96.7773 118.334Z" fill="white"/>
<path d="M98.4344 112.756L98.1166 113.644L92.0374 108.572L92.3503 107.697L100.268 107.63L99.9498 108.519L93.3108 108.503L93.2912 108.558L98.4344 112.756ZM95.818 111.45L97.0988 107.869L97.8506 108.138L96.5698 111.719L95.818 111.45Z" fill="white"/>
<path d="M100.617 107.035L93.8327 104L94.8583 101.708C95.0954 101.178 95.3806 100.783 95.7138 100.524C96.0449 100.264 96.4037 100.122 96.7904 100.099C97.1772 100.076 97.5704 100.154 97.9701 100.333C98.3698 100.512 98.6877 100.752 98.9238 101.054C99.1599 101.355 99.2907 101.715 99.3162 102.132C99.3395 102.548 99.2336 103.018 98.9984 103.544L98.1685 105.399L97.4264 105.067L98.2445 103.238C98.4065 102.876 98.484 102.561 98.4768 102.293C98.4705 102.022 98.3925 101.794 98.2426 101.608C98.0915 101.418 97.8801 101.263 97.6085 101.141C97.3369 101.019 97.0767 100.964 96.8281 100.975C96.5795 100.985 96.3501 101.078 96.1398 101.251C95.9274 101.424 95.7392 101.694 95.5752 102.06L94.929 103.504L100.985 106.214L100.617 107.035ZM98.9981 102.478L102.793 102.172L102.366 103.126L98.5831 103.406L98.9981 102.478Z" fill="white"/>
<path d="M100.117 95.5368C99.7724 95.4007 99.4373 95.4208 99.1115 95.597C98.7857 95.7732 98.5161 96.0594 98.3027 96.4556C98.1466 96.7453 98.0569 97.024 98.0335 97.2917C98.0114 97.5573 98.0496 97.795 98.1481 98.0048C98.2479 98.2124 98.4021 98.3725 98.6108 98.4849C98.7855 98.579 98.958 98.6184 99.1285 98.6031C99.2979 98.5844 99.4597 98.5315 99.6139 98.4442C99.766 98.3557 99.9077 98.2534 100.039 98.1373C100.168 98.02 100.281 97.9092 100.379 97.8051L100.916 97.2369C101.052 97.0906 101.216 96.9344 101.407 96.7681C101.6 96.5997 101.816 96.4564 102.055 96.3381C102.294 96.2166 102.553 96.1498 102.831 96.1378C103.11 96.1257 103.402 96.2023 103.709 96.3676C104.063 96.5581 104.332 96.8228 104.518 97.1619C104.705 97.4989 104.787 97.8895 104.765 98.3337C104.743 98.7758 104.597 99.2481 104.327 99.7508C104.074 100.219 103.78 100.584 103.444 100.846C103.109 101.105 102.754 101.26 102.378 101.31C102.003 101.358 101.629 101.299 101.258 101.131L101.698 100.313C101.957 100.425 102.206 100.452 102.446 100.395C102.685 100.334 102.904 100.213 103.104 100.032C103.302 99.8472 103.471 99.6251 103.611 99.3652C103.774 99.0628 103.871 98.7648 103.903 98.4713C103.933 98.1767 103.897 97.9115 103.796 97.6757C103.693 97.4387 103.522 97.256 103.283 97.1274C103.066 97.0104 102.856 96.9758 102.655 97.0238C102.453 97.0718 102.256 97.1718 102.064 97.324C101.872 97.4762 101.682 97.6501 101.495 97.8457L100.831 98.5268C100.408 98.9588 99.9806 99.2505 99.5473 99.4018C99.114 99.553 98.6769 99.5099 98.236 99.2724C97.8697 99.075 97.6036 98.8038 97.4377 98.4588C97.2708 98.1106 97.2024 97.7275 97.2325 97.3095C97.2616 96.8882 97.3886 96.4688 97.6136 96.0513C97.8408 95.6296 98.1184 95.2955 98.4463 95.049C98.7721 94.8013 99.1166 94.6516 99.4798 94.5999C99.844 94.5461 100.194 94.6028 100.53 94.7701L100.117 95.5368Z" fill="white"/>
<path d="M108.25 86.7337C108.89 87.1863 109.361 87.693 109.664 88.2538C109.967 88.8146 110.102 89.3859 110.07 89.9677C110.038 90.5494 109.839 91.0991 109.473 91.6166C109.107 92.1342 108.655 92.505 108.117 92.7292C107.579 92.9534 106.996 93.0162 106.366 92.9176C105.736 92.8191 105.101 92.5435 104.461 92.0909C103.821 91.6383 103.35 91.1316 103.047 90.5708C102.745 90.01 102.609 89.4387 102.641 88.8569C102.674 88.2751 102.873 87.7255 103.239 87.2079C103.605 86.6904 104.057 86.3195 104.594 86.0954C105.132 85.8712 105.716 85.8084 106.345 85.907C106.975 86.0055 107.61 86.2811 108.25 86.7337ZM107.747 87.4448C107.222 87.0733 106.716 86.8476 106.23 86.7677C105.746 86.6859 105.305 86.7285 104.909 86.8955C104.513 87.0605 104.186 87.3267 103.926 87.6941C103.666 88.0615 103.524 88.46 103.498 88.8896C103.475 89.3172 103.581 89.7467 103.818 90.1782C104.057 90.6076 104.439 91.0082 104.964 91.3797C105.49 91.7513 105.995 91.978 106.479 92.0598C106.965 92.1397 107.406 92.0971 107.801 91.9321C108.197 91.7651 108.526 91.4979 108.785 91.1305C109.045 90.7631 109.187 90.3656 109.211 89.938C109.236 89.5084 109.13 89.0789 108.891 88.6494C108.654 88.2179 108.273 87.8164 107.747 87.4448Z" fill="white"/>
<path d="M111.853 88.3377L106.134 83.591L108.98 80.1618L109.595 80.6716L107.323 83.4084L109.256 85.0122L111.314 82.5324L111.928 83.0423L109.87 85.5221L112.428 87.6451L111.853 88.3377Z" fill="white"/>
<path d="M117.495 82.0575L112.323 76.7197L115.545 73.5984L116.1 74.1718L113.525 76.6668L115.273 78.4704L117.681 76.1371L118.237 76.7104L115.828 79.0438L117.586 80.8578L120.203 78.3224L120.758 78.8958L117.495 82.0575Z" fill="white"/>
<path d="M117.089 72.3144L120.546 73.4457L120.591 73.4083L120.065 69.8088L120.876 69.1264L121.481 73.4744L125.663 74.8121L124.852 75.4946L121.432 74.4077L121.388 74.4451L121.876 78.0001L121.065 78.6826L120.504 74.2971L116.279 72.9968L117.089 72.3144Z" fill="white"/>
<path d="M127.688 67.1602L126.958 67.6863C126.764 67.5074 126.555 67.3774 126.333 67.2962C126.112 67.2135 125.886 67.1734 125.655 67.1758C125.425 67.1748 125.198 67.2132 124.974 67.2912C124.75 67.3692 124.538 67.4803 124.337 67.6246C123.972 67.8877 123.708 68.2183 123.544 68.6163C123.383 69.013 123.344 69.4539 123.428 69.939C123.515 70.4227 123.746 70.9256 124.122 71.4477C124.498 71.9698 124.902 72.3483 125.334 72.583C125.767 72.8163 126.198 72.9192 126.625 72.8915C127.054 72.8625 127.452 72.7164 127.817 72.4534C128.017 72.3091 128.189 72.143 128.334 71.9551C128.479 71.7672 128.588 71.5648 128.662 71.3479C128.736 71.1277 128.768 70.8999 128.76 70.6645C128.752 70.4257 128.694 70.1868 128.588 69.9476L129.318 69.4215C129.485 69.7692 129.583 70.1171 129.614 70.4652C129.644 70.8133 129.612 71.1505 129.52 71.4768C129.425 71.8012 129.275 72.1045 129.07 72.3866C128.867 72.6673 128.613 72.9172 128.309 73.1364C127.795 73.507 127.247 73.7109 126.665 73.7482C126.084 73.7855 125.511 73.6552 124.948 73.3575C124.384 73.0597 123.874 72.5929 123.415 71.9569C122.957 71.3209 122.676 70.6885 122.572 70.0598C122.468 69.4311 122.525 68.8468 122.745 68.307C122.964 67.7673 123.331 67.3121 123.845 66.9415C124.149 66.7223 124.467 66.5607 124.797 66.4566C125.13 66.3512 125.466 66.3061 125.805 66.3213C126.142 66.3345 126.471 66.4105 126.792 66.5492C127.111 66.686 127.41 66.8897 127.688 67.1602Z" fill="white"/>
<path d="M131.12 71.1464L127.241 64.8063L131.068 62.4655L131.484 63.1466L128.426 65.0177L129.736 67.16L132.597 65.4101L133.014 66.0911L130.153 67.841L131.471 69.9957L134.579 68.0942L134.996 68.7753L131.12 71.1464Z" fill="white"/>
<path d="M135.907 68.3454L132.469 61.7564L133.266 61.34L136.336 67.2212L139.399 65.6227L139.768 66.3305L135.907 68.3454Z" fill="white"/>
<path d="M140.604 66.0084L137.609 59.2064L138.433 58.8436L141.106 64.9149L144.268 63.5225L144.59 64.2532L140.604 66.0084Z" fill="white"/>
<path d="M145.437 63.9869L142.911 56.997L147.129 55.4724L147.4 56.2233L144.028 57.442L144.882 59.8038L148.036 58.664L148.307 59.4149L145.153 60.5546L146.012 62.9301L149.439 61.6916L149.71 62.4425L145.437 63.9869Z" fill="white"/>
<path d="M154.341 53.4619L156.334 60.6221L155.495 60.8557L150.028 56.3197L149.958 56.3391L151.523 61.961L150.656 62.2023L148.663 55.0421L149.502 54.8086L154.986 59.3547L155.056 59.3352L153.488 53.6993L154.341 53.4619Z" fill="white"/>
<path d="M161.767 54.4486L160.883 54.6191C160.782 54.375 160.648 54.1693 160.48 54.0021C160.314 53.8344 160.126 53.7032 159.916 53.6082C159.707 53.5105 159.485 53.4499 159.249 53.4265C159.013 53.403 158.774 53.4147 158.531 53.4614C158.089 53.5466 157.711 53.7355 157.395 54.028C157.082 54.3201 156.861 54.7038 156.734 55.1794C156.609 55.6544 156.607 56.2079 156.729 56.8398C156.851 57.4717 157.058 57.9849 157.351 58.3793C157.646 58.7732 157.994 59.0475 158.393 59.2021C158.795 59.3562 159.217 59.3906 159.659 59.3054C159.901 59.2586 160.127 59.1805 160.338 59.0709C160.548 58.9613 160.732 58.8235 160.89 58.6576C161.05 58.4888 161.175 58.2958 161.266 58.0786C161.359 57.8586 161.408 57.6177 161.411 57.3558L162.295 57.1853C162.3 57.5711 162.244 57.9283 162.125 58.2567C162.006 58.5852 161.836 58.878 161.614 59.1351C161.392 59.3898 161.129 59.602 160.824 59.7717C160.522 59.9409 160.186 60.061 159.818 60.1321C159.196 60.2521 158.613 60.2069 158.069 59.9963C157.526 59.7857 157.062 59.4269 156.675 58.9199C156.289 58.4128 156.022 57.7745 155.874 57.0048C155.725 56.2351 155.736 55.5431 155.906 54.9289C156.075 54.3146 156.373 53.8087 156.799 53.4111C157.225 53.0136 157.749 52.7548 158.372 52.6347C158.74 52.5637 159.096 52.5505 159.44 52.595C159.786 52.6391 160.109 52.7393 160.41 52.8956C160.711 53.0495 160.978 53.2568 161.211 53.5174C161.443 53.7757 161.628 54.0861 161.767 54.4486Z" fill="white"/>
<path d="M163.208 59.5097L162.354 52.1266L166.81 51.6111L166.902 52.4042L163.34 52.8163L163.629 55.311L166.96 54.9255L167.051 55.7186L163.72 56.1041L164.011 58.6132L167.63 58.1944L167.722 58.9875L163.208 59.5097Z" fill="white"/>
<path d="M172.744 51.4054L172.89 58.8363L171.99 58.854L171.844 51.423L172.744 51.4054Z" fill="white"/>
<path d="M181.301 51.6524L180.996 59.0785L180.125 59.0428L176.318 53.0459L176.246 53.0429L176.006 58.8736L175.107 58.8366L175.412 51.4105L176.282 51.4463L180.103 57.4582L180.176 57.4612L180.416 51.6161L181.301 51.6524Z" fill="white"/>
<path d="M184.716 59.6179L185.877 52.2768L190.308 52.9776L190.183 53.7662L186.642 53.206L186.249 55.6865L189.561 56.2104L189.437 56.999L186.125 56.4751L185.73 58.9699L189.329 59.5391L189.204 60.3277L184.716 59.6179Z" fill="white"/>
<path d="M197.591 54.6968L195.881 61.9296L195.033 61.7292L192.435 55.1182L192.364 55.1014L191.021 60.7803L190.145 60.5732L191.856 53.3404L192.703 53.5408L195.312 60.1693L195.383 60.186L196.73 54.493L197.591 54.6968Z" fill="white"/>
<path d="M200.406 59.6825L200.17 60.4452L197.064 59.4835L197.3 58.7208L200.406 59.6825Z" fill="white"/>
<path d="M202.504 57.2084L202.788 56.4619L207.999 58.4399L207.716 59.1864L205.531 58.357L203.177 64.5593L202.336 64.2399L204.69 58.0377L202.504 57.2084Z" fill="white"/>
<path d="M205.672 65.618L208.787 58.8703L212.86 60.7508L212.525 61.4756L209.27 59.9725L208.217 62.2524L211.261 63.6582L210.927 64.3831L207.882 62.9773L206.823 65.2704L210.131 66.7979L209.797 67.5228L205.672 65.618Z" fill="white"/>
<path d="M218.346 66.4607L217.559 66.0229C217.639 65.7708 217.668 65.5268 217.647 65.2908C217.628 65.0561 217.569 64.8347 217.469 64.6266C217.372 64.4176 217.24 64.2282 217.075 64.0584C216.909 63.8886 216.718 63.7437 216.503 63.6236C216.109 63.4048 215.698 63.3058 215.268 63.3268C214.84 63.349 214.425 63.5012 214.021 63.7833C213.62 64.0666 213.263 64.4894 212.95 65.0517C212.637 65.614 212.466 66.1403 212.436 66.6307C212.409 67.1223 212.499 67.5557 212.705 67.9309C212.914 68.3073 213.215 68.605 213.608 68.8238C213.823 68.9439 214.047 69.0296 214.279 69.081C214.51 69.1325 214.74 69.1454 214.967 69.1197C215.198 69.0931 215.418 69.026 215.628 68.9183C215.841 68.8097 216.033 68.6563 216.204 68.4581L216.99 68.8959C216.746 69.1948 216.473 69.4318 216.171 69.6068C215.868 69.7819 215.55 69.8966 215.215 69.9511C214.881 70.0034 214.543 69.9966 214.2 69.9305C213.86 69.8655 213.526 69.7419 213.198 69.5595C212.644 69.2512 212.227 68.8417 211.947 68.331C211.666 67.8204 211.541 67.2468 211.571 66.6102C211.602 65.9737 211.807 65.3129 212.189 64.628C212.57 63.9431 213.023 63.4201 213.548 63.0589C214.073 62.6977 214.627 62.5018 215.209 62.4713C215.79 62.4408 216.358 62.5797 216.912 62.888C217.24 63.0704 217.521 63.2892 217.755 63.5444C217.992 63.8007 218.175 64.0856 218.306 64.3989C218.437 64.7102 218.508 65.0404 218.518 65.3896C218.53 65.7367 218.473 66.0937 218.346 66.4607Z" fill="white"/>
<path d="M216.177 71.241L220.305 65.0604L221.053 65.5602L219.215 68.3125L222.51 70.5136L224.349 67.7613L225.097 68.2612L220.969 74.4418L220.221 73.9419L222.067 71.1775L218.771 68.9765L216.925 71.7408L216.177 71.241Z" fill="white"/>
<path d="M229.441 71.8019L224.71 77.5343L224.016 76.9614L228.747 71.229L229.441 71.8019Z" fill="white"/>
<path d="M235.773 77.5623L230.704 82.9973L230.067 82.4033L231.086 75.3734L231.033 75.3239L227.052 79.5913L226.394 78.9774L231.464 73.5423L232.1 74.1364L231.083 81.1868L231.136 81.2363L235.126 76.9583L235.773 77.5623Z" fill="white"/>
<path d="M240.053 85.3203C240.305 85.0495 240.409 84.7302 240.364 84.3626C240.319 83.9949 240.151 83.6393 239.86 83.2959C239.648 83.0448 239.421 82.8594 239.181 82.7399C238.941 82.6221 238.706 82.5709 238.475 82.586C238.245 82.603 238.04 82.688 237.859 82.8412C237.707 82.9694 237.608 83.1156 237.56 83.2799C237.515 83.4444 237.505 83.6144 237.53 83.7899C237.557 83.9638 237.601 84.133 237.661 84.2977C237.723 84.4607 237.784 84.6066 237.846 84.7353L238.178 85.4428C238.265 85.6233 238.35 85.833 238.435 86.0718C238.522 86.3124 238.576 86.5659 238.599 86.8321C238.625 87.0986 238.592 87.3637 238.502 87.6274C238.411 87.8911 238.233 88.1356 237.967 88.3607C237.66 88.6202 237.315 88.7744 236.932 88.8232C236.55 88.8739 236.157 88.8077 235.751 88.6247C235.347 88.4435 234.961 88.1351 234.592 87.6993C234.248 87.2931 234.016 86.8858 233.895 86.4775C233.776 86.0711 233.762 85.6837 233.853 85.3152C233.945 84.9487 234.137 84.623 234.428 84.3382L235.029 85.0473C234.83 85.2471 234.714 85.4692 234.68 85.7135C234.649 85.9582 234.682 86.2064 234.777 86.4581C234.877 86.7101 235.022 86.9487 235.212 87.174C235.434 87.4362 235.676 87.6357 235.938 87.7724C236.201 87.9076 236.461 87.9713 236.718 87.9634C236.976 87.9539 237.208 87.8616 237.415 87.6866C237.604 87.5271 237.712 87.3447 237.741 87.1394C237.77 86.9341 237.749 86.7143 237.678 86.4801C237.606 86.2458 237.514 86.0055 237.4 85.7592L237.009 84.8924C236.761 84.3414 236.646 83.8366 236.663 83.378C236.681 82.9194 236.881 82.5282 237.263 82.2046C237.58 81.9358 237.93 81.7871 238.312 81.7587C238.697 81.7306 239.079 81.807 239.457 81.9877C239.838 82.1688 240.182 82.4402 240.489 82.8021C240.798 83.1678 241.008 83.5482 241.117 83.9436C241.229 84.3374 241.242 84.7127 241.158 85.0696C241.075 85.4284 240.894 85.7335 240.616 85.9851L240.053 85.3203Z" fill="white"/>
<path d="M241.973 86.1081L242.618 85.6371L245.906 90.1385L245.261 90.6094L243.882 88.7221L238.525 92.635L237.994 91.9082L243.352 87.9954L241.973 86.1081Z" fill="white"/>
<path d="M240.193 95.1177L239.696 94.316L247.45 92.7154L247.94 93.5047L243.064 99.7429L242.566 98.9412L246.711 93.7548L246.68 93.7054L240.193 95.1177ZM242.844 93.8827L244.849 97.1142L244.171 97.5352L242.165 94.3038L242.844 93.8827Z" fill="white"/>
<path d="M243.311 100.387L249.91 96.9661L251.066 99.1957C251.333 99.7112 251.464 100.18 251.459 100.602C251.457 101.023 251.344 101.392 251.122 101.709C250.899 102.026 250.594 102.285 250.205 102.487C249.816 102.689 249.43 102.788 249.047 102.785C248.664 102.782 248.301 102.66 247.959 102.421C247.619 102.18 247.316 101.804 247.051 101.293L246.116 99.4888L246.838 99.1146L247.76 100.893C247.942 101.245 248.141 101.502 248.355 101.664C248.571 101.827 248.798 101.908 249.037 101.907C249.28 101.906 249.533 101.838 249.797 101.701C250.061 101.564 250.267 101.395 250.413 101.194C250.559 100.992 250.63 100.755 250.625 100.483C250.622 100.209 250.528 99.8939 250.343 99.5373L249.615 98.1326L243.726 101.186L243.311 100.387ZM247.886 101.956L245.763 105.117L245.282 104.189L247.418 101.054L247.886 101.956Z" fill="white"/>
<path d="M251.829 102.623L252.563 102.308L254.767 107.427L254.034 107.743L253.11 105.597L247.016 108.22L246.66 107.393L252.754 104.77L251.829 102.623Z" fill="white"/>
<path d="M256.604 112.917L256.897 113.768L252.243 115.369C251.763 115.534 251.295 115.568 250.839 115.472C250.387 115.376 249.982 115.161 249.624 114.827C249.268 114.491 248.995 114.047 248.805 113.496C248.616 112.945 248.558 112.427 248.632 111.944C248.709 111.46 248.896 111.04 249.193 110.684C249.494 110.33 249.884 110.07 250.364 109.905L255.018 108.305L255.311 109.156L250.726 110.733C250.383 110.851 250.103 111.031 249.887 111.274C249.674 111.517 249.538 111.804 249.481 112.135C249.427 112.469 249.467 112.831 249.602 113.222C249.736 113.614 249.927 113.924 250.175 114.153C250.425 114.382 250.708 114.525 251.025 114.583C251.345 114.642 251.676 114.612 252.019 114.494L256.604 112.917Z" fill="white"/>
<path d="M249.959 116.843L257.152 114.975L257.784 117.406C257.93 117.97 257.948 118.458 257.837 118.869C257.729 119.282 257.526 119.62 257.227 119.882C256.927 120.145 256.566 120.332 256.142 120.442C255.718 120.552 255.31 120.565 254.919 120.482C254.528 120.401 254.183 120.208 253.884 119.903C253.587 119.598 253.366 119.165 253.221 118.605L252.768 116.863L253.541 116.662L253.986 118.377C254.087 118.763 254.234 119.056 254.428 119.256C254.622 119.455 254.847 119.578 255.101 119.624C255.359 119.673 255.631 119.659 255.92 119.584C256.208 119.51 256.451 119.389 256.65 119.222C256.85 119.058 256.984 118.841 257.051 118.571C257.121 118.3 257.105 117.969 257.003 117.578L256.606 116.047L250.185 117.714L249.959 116.843Z" fill="white"/>
<path d="M258.337 155.838L258.128 156.847L254.311 158.159L254.294 158.244L257.271 160.969L257.061 161.978L253.33 158.459L250.331 157.835L250.514 156.954L253.513 157.578L258.337 155.838Z" fill="white"/>
<path d="M249.632 160.641L256.781 162.672L255.556 166.987L254.788 166.769L255.768 163.319L253.352 162.633L252.436 165.859L251.668 165.641L252.584 162.415L250.154 161.725L249.159 165.23L248.391 165.012L249.632 160.641Z" fill="white"/>
<path d="M247.927 166.206L248.252 165.32L254.288 170.445L253.967 171.317L246.05 171.315L246.375 170.43L253.014 170.502L253.034 170.448L247.927 166.206ZM250.532 167.534L249.221 171.104L248.471 170.829L249.783 167.259L250.532 167.534Z" fill="white"/>
<path d="M245.698 171.909L252.456 175.002L251.411 177.285C251.169 177.813 250.88 178.205 250.545 178.462C250.212 178.719 249.852 178.857 249.465 178.877C249.078 178.897 248.685 178.816 248.287 178.634C247.889 178.451 247.573 178.208 247.34 177.905C247.106 177.601 246.979 177.24 246.957 176.823C246.937 176.407 247.047 175.937 247.286 175.414L248.132 173.566L248.871 173.904L248.038 175.726C247.873 176.086 247.792 176.401 247.797 176.669C247.801 176.94 247.877 177.169 248.026 177.356C248.175 177.547 248.385 177.705 248.656 177.828C248.926 177.952 249.186 178.01 249.435 178.001C249.683 177.993 249.914 177.903 250.125 177.731C250.339 177.56 250.53 177.292 250.697 176.927L251.355 175.488L245.323 172.727L245.698 171.909ZM247.278 176.479L243.481 176.753L243.916 175.802L247.701 175.555L247.278 176.479Z" fill="white"/>
<path d="M246.095 183.409C246.438 183.548 246.774 183.531 247.101 183.357C247.428 183.184 247.7 182.9 247.917 182.506C248.076 182.217 248.168 181.94 248.193 181.672C248.218 181.407 248.182 181.169 248.085 180.958C247.987 180.75 247.834 180.588 247.626 180.474C247.453 180.378 247.28 180.337 247.11 180.351C246.94 180.369 246.778 180.42 246.623 180.506C246.47 180.593 246.328 180.694 246.195 180.809C246.065 180.925 245.951 181.035 245.853 181.139L245.311 181.702C245.173 181.847 245.008 182.002 244.815 182.167C244.621 182.333 244.404 182.475 244.164 182.591C243.924 182.711 243.665 182.775 243.386 182.785C243.107 182.794 242.815 182.715 242.51 182.547C242.158 182.354 241.891 182.087 241.708 181.746C241.525 181.408 241.446 181.016 241.472 180.572C241.497 180.13 241.647 179.659 241.922 179.159C242.178 178.693 242.476 178.33 242.814 178.072C243.151 177.815 243.508 177.664 243.884 177.617C244.259 177.572 244.632 177.634 245.002 177.805L244.555 178.619C244.297 178.505 244.048 178.476 243.808 178.531C243.568 178.59 243.348 178.709 243.147 178.889C242.947 179.071 242.776 179.292 242.634 179.551C242.468 179.852 242.369 180.149 242.334 180.442C242.302 180.736 242.336 181.002 242.435 181.239C242.536 181.476 242.705 181.661 242.943 181.791C243.159 181.91 243.368 181.947 243.57 181.9C243.772 181.854 243.97 181.756 244.163 181.605C244.356 181.455 244.548 181.282 244.737 181.088L245.407 180.413C245.833 179.985 246.263 179.697 246.698 179.549C247.132 179.402 247.569 179.448 248.008 179.69C248.373 179.89 248.636 180.164 248.799 180.51C248.963 180.86 249.028 181.243 248.995 181.661C248.962 182.082 248.831 182.5 248.603 182.916C248.372 183.336 248.092 183.667 247.761 183.911C247.434 184.156 247.088 184.303 246.724 184.351C246.36 184.402 246.01 184.342 245.676 184.172L246.095 183.409Z" fill="white"/>
<path d="M237.893 192.143C237.256 191.685 236.789 191.174 236.492 190.611C236.194 190.047 236.063 189.475 236.1 188.893C236.137 188.312 236.341 187.764 236.712 187.249C237.082 186.735 237.537 186.368 238.077 186.149C238.617 185.929 239.201 185.871 239.83 185.975C240.458 186.079 241.091 186.36 241.727 186.818C242.363 187.276 242.83 187.787 243.128 188.35C243.426 188.914 243.556 189.486 243.519 190.068C243.482 190.649 243.278 191.197 242.908 191.712C242.537 192.226 242.082 192.593 241.543 192.812C241.003 193.032 240.419 193.09 239.79 192.986C239.161 192.882 238.529 192.601 237.893 192.143ZM238.402 191.436C238.924 191.812 239.427 192.042 239.913 192.126C240.396 192.212 240.837 192.173 241.235 192.01C241.632 191.848 241.962 191.585 242.225 191.219C242.488 190.854 242.634 190.457 242.662 190.028C242.69 189.6 242.587 189.17 242.354 188.736C242.119 188.305 241.74 187.901 241.218 187.525C240.696 187.149 240.193 186.918 239.709 186.832C239.224 186.748 238.783 186.787 238.386 186.948C237.988 187.112 237.658 187.376 237.395 187.742C237.132 188.107 236.987 188.503 236.959 188.93C236.93 189.36 237.033 189.79 237.268 190.222C237.501 190.655 237.879 191.06 238.402 191.436Z" fill="white"/>
<path d="M234.302 190.507L239.98 195.303L237.105 198.708L236.495 198.192L238.789 195.475L236.871 193.855L234.791 196.317L234.181 195.802L236.261 193.34L233.721 191.195L234.302 190.507Z" fill="white"/>
<path d="M228.608 196.741L233.734 202.123L230.486 205.216L229.936 204.638L232.532 202.165L230.8 200.347L228.372 202.659L227.821 202.081L230.249 199.769L228.507 197.94L225.869 200.452L225.318 199.874L228.608 196.741Z" fill="white"/>
<path d="M228.927 206.486L225.48 205.325L225.435 205.362L225.929 208.966L225.113 209.642L224.545 205.289L220.375 203.915L221.192 203.24L224.602 204.356L224.647 204.319L224.189 200.76L225.006 200.084L225.529 204.474L229.743 205.811L228.927 206.486Z" fill="white"/>
<path d="M218.285 211.549L219.02 211.029C219.213 211.209 219.42 211.341 219.642 211.424C219.862 211.509 220.087 211.551 220.318 211.551C220.548 211.554 220.776 211.517 221.001 211.441C221.225 211.365 221.438 211.256 221.64 211.113C222.007 210.853 222.274 210.525 222.441 210.128C222.606 209.733 222.648 209.292 222.569 208.806C222.487 208.322 222.26 207.817 221.888 207.292C221.516 206.767 221.116 206.385 220.686 206.146C220.255 205.909 219.825 205.803 219.397 205.827C218.968 205.852 218.569 205.995 218.202 206.255C218.001 206.397 217.827 206.562 217.68 206.748C217.534 206.935 217.423 207.137 217.348 207.353C217.272 207.572 217.237 207.8 217.244 208.035C217.25 208.274 217.305 208.514 217.41 208.754L216.675 209.274C216.511 208.924 216.415 208.576 216.388 208.227C216.361 207.879 216.395 207.542 216.491 207.216C216.588 206.893 216.74 206.591 216.948 206.311C217.154 206.032 217.41 205.784 217.716 205.567C218.233 205.201 218.783 205.002 219.365 204.97C219.946 204.937 220.518 205.073 221.078 205.375C221.639 205.678 222.146 206.149 222.599 206.789C223.052 207.429 223.328 208.063 223.426 208.693C223.525 209.323 223.462 209.906 223.238 210.444C223.014 210.982 222.644 211.434 222.126 211.8C221.82 212.017 221.501 212.176 221.17 212.277C220.836 212.38 220.5 212.422 220.161 212.404C219.824 212.388 219.495 212.309 219.176 212.167C218.858 212.028 218.561 211.822 218.285 211.549Z" fill="white"/>
<path d="M214.886 207.532L218.71 213.905L214.864 216.213L214.453 215.529L217.527 213.684L216.235 211.53L213.36 213.256L212.949 212.571L215.825 210.846L214.525 208.68L211.401 210.555L210.99 209.87L214.886 207.532Z" fill="white"/>
<path d="M210.073 210.293L213.455 216.911L212.653 217.321L209.634 211.413L206.558 212.986L206.195 212.275L210.073 210.293Z" fill="white"/>
<path d="M205.356 212.59L208.293 219.417L207.466 219.773L204.845 213.679L201.671 215.044L201.356 214.311L205.356 212.59Z" fill="white"/>
<path d="M200.508 214.57L202.974 221.582L198.743 223.07L198.478 222.317L201.86 221.127L201.027 218.758L197.864 219.871L197.599 219.118L200.762 218.005L199.924 215.622L196.487 216.831L196.222 216.078L200.508 214.57Z" fill="white"/>
<path d="M191.513 225.018L189.582 217.841L190.423 217.615L195.85 222.197L195.92 222.179L194.404 216.543L195.273 216.31L197.204 223.487L196.363 223.713L190.918 219.12L190.848 219.139L192.368 224.788L191.513 225.018Z" fill="white"/>
<path d="M184.093 223.966L184.978 223.803C185.077 224.048 185.21 224.254 185.376 224.423C185.54 224.592 185.727 224.725 185.937 224.822C186.145 224.921 186.366 224.984 186.602 225.009C186.838 225.035 187.078 225.025 187.32 224.981C187.763 224.899 188.143 224.713 188.461 224.424C188.777 224.134 189.001 223.752 189.132 223.278C189.262 222.804 189.268 222.251 189.152 221.618C189.035 220.985 188.832 220.47 188.543 220.073C188.251 219.676 187.906 219.399 187.508 219.241C187.107 219.084 186.686 219.046 186.243 219.127C186 219.172 185.773 219.248 185.562 219.356C185.351 219.464 185.165 219.6 185.006 219.764C184.845 219.932 184.718 220.124 184.625 220.34C184.53 220.559 184.48 220.8 184.474 221.062L183.589 221.224C183.586 220.839 183.646 220.482 183.768 220.155C183.89 219.827 184.062 219.536 184.286 219.281C184.51 219.028 184.775 218.818 185.082 218.651C185.386 218.484 185.722 218.367 186.091 218.299C186.714 218.184 187.297 218.235 187.838 218.45C188.379 218.665 188.841 219.028 189.223 219.538C189.605 220.049 189.866 220.689 190.008 221.46C190.15 222.231 190.133 222.923 189.958 223.536C189.783 224.148 189.481 224.652 189.052 225.046C188.622 225.44 188.096 225.694 187.473 225.809C187.104 225.876 186.748 225.887 186.404 225.839C186.059 225.792 185.736 225.689 185.436 225.53C185.137 225.374 184.872 225.164 184.642 224.902C184.412 224.641 184.229 224.329 184.093 223.966Z" fill="white"/>
<path d="M182.702 218.894L183.493 226.284L179.033 226.762L178.948 225.968L182.513 225.586L182.246 223.089L178.912 223.446L178.827 222.652L182.161 222.295L181.892 219.784L178.269 220.172L178.184 219.378L182.702 218.894Z" fill="white"/>
<path d="M173.093 226.915L173.011 219.483L173.911 219.473L173.993 226.905L173.093 226.915Z" fill="white"/>
<path d="M164.539 226.597L164.908 219.174L165.778 219.217L169.533 225.247L169.606 225.25L169.895 219.422L170.794 219.466L170.425 226.89L169.555 226.846L165.786 220.802L165.714 220.798L165.423 226.641L164.539 226.597Z" fill="white"/>
<path d="M161.192 218.602L159.968 225.933L155.544 225.194L155.675 224.407L159.212 224.997L159.625 222.52L156.318 221.968L156.449 221.18L159.757 221.733L160.173 219.241L156.579 218.641L156.71 217.854L161.192 218.602Z" fill="white"/>
<path d="M148.277 223.412L150.05 216.194L150.896 216.402L153.437 223.035L153.508 223.053L154.899 217.385L155.773 217.6L154.001 224.818L153.155 224.61L150.603 217.96L150.532 217.942L149.137 223.624L148.277 223.412Z" fill="white"/>
<path d="M145.505 218.403L145.747 217.642L148.845 218.631L148.602 219.391L145.505 218.403Z" fill="white"/>
<path d="M143.387 220.858L143.097 221.602L137.903 219.579L138.193 218.835L140.37 219.684L142.778 213.502L143.616 213.828L141.209 220.01L143.387 220.858Z" fill="white"/>
<path d="M140.294 212.422L137.121 219.142L133.065 217.227L133.406 216.505L136.648 218.036L137.72 215.765L134.688 214.333L135.029 213.611L138.061 215.043L139.14 212.759L135.845 211.203L136.186 210.481L140.294 212.422Z" fill="white"/>
<path d="M127.623 211.47L128.406 211.915C128.324 212.166 128.293 212.41 128.312 212.646C128.329 212.881 128.386 213.103 128.485 213.312C128.58 213.521 128.709 213.712 128.874 213.883C129.038 214.054 129.227 214.201 129.442 214.323C129.833 214.545 130.244 214.648 130.674 214.63C131.102 214.612 131.519 214.463 131.924 214.184C132.328 213.905 132.689 213.485 133.007 212.925C133.325 212.366 133.5 211.841 133.534 211.351C133.565 210.859 133.48 210.425 133.276 210.048C133.071 209.67 132.773 209.37 132.381 209.148C132.167 209.026 131.944 208.938 131.713 208.885C131.481 208.831 131.252 208.816 131.024 208.84C130.793 208.865 130.573 208.93 130.362 209.036C130.148 209.143 129.955 209.294 129.782 209.491L129 209.047C129.246 208.75 129.521 208.515 129.825 208.343C130.129 208.17 130.449 208.058 130.784 208.007C131.118 207.957 131.456 207.967 131.798 208.036C132.138 208.104 132.471 208.23 132.797 208.416C133.348 208.729 133.762 209.142 134.038 209.655C134.314 210.168 134.435 210.742 134.399 211.379C134.363 212.015 134.151 212.674 133.764 213.356C133.377 214.037 132.919 214.556 132.391 214.913C131.863 215.27 131.308 215.461 130.726 215.486C130.144 215.512 129.577 215.368 129.026 215.055C128.7 214.87 128.421 214.649 128.188 214.391C127.954 214.133 127.773 213.847 127.646 213.532C127.517 213.22 127.449 212.889 127.441 212.54C127.433 212.192 127.493 211.836 127.623 211.47Z" fill="white"/>
<path d="M129.832 206.708L125.651 212.853L124.907 212.346L126.769 209.61L123.492 207.381L121.63 210.117L120.886 209.611L125.067 203.466L125.811 203.972L123.941 206.721L127.218 208.95L129.088 206.202L129.832 206.708Z" fill="white"/>
<path d="M116.574 206.035L121.354 200.343L122.043 200.922L117.263 206.614L116.574 206.035Z" fill="white"/>
<path d="M110.293 200.221L115.409 194.83L116.041 195.429L114.962 202.45L115.014 202.5L119.031 198.267L119.684 198.886L114.568 204.278L113.936 203.678L115.015 196.637L114.962 196.587L110.935 200.83L110.293 200.221Z" fill="white"/>
<path d="M106.081 192.425C105.826 192.693 105.719 193.012 105.761 193.38C105.803 193.748 105.968 194.105 106.256 194.451C106.466 194.703 106.691 194.891 106.931 195.012C107.169 195.132 107.404 195.185 107.635 195.172C107.865 195.157 108.071 195.074 108.253 194.922C108.406 194.795 108.507 194.65 108.556 194.486C108.602 194.322 108.613 194.152 108.59 193.977C108.565 193.802 108.523 193.633 108.464 193.468C108.403 193.304 108.343 193.158 108.283 193.028L107.956 192.318C107.871 192.137 107.788 191.927 107.705 191.687C107.62 191.446 107.568 191.192 107.548 190.925C107.524 190.659 107.559 190.394 107.652 190.131C107.744 189.868 107.925 189.625 108.193 189.402C108.501 189.145 108.848 188.994 109.231 188.949C109.614 188.901 110.007 188.971 110.411 189.157C110.813 189.342 111.197 189.654 111.562 190.093C111.902 190.502 112.131 190.911 112.248 191.32C112.364 191.728 112.374 192.115 112.281 192.483C112.185 192.849 111.991 193.173 111.697 193.455L111.102 192.741C111.303 192.543 111.421 192.322 111.457 192.077C111.49 191.833 111.459 191.585 111.366 191.332C111.269 191.079 111.126 190.839 110.937 190.612C110.717 190.348 110.477 190.147 110.217 190.008C109.954 189.87 109.695 189.805 109.439 189.81C109.18 189.817 108.947 189.908 108.739 190.081C108.549 190.239 108.439 190.42 108.408 190.625C108.377 190.83 108.396 191.05 108.466 191.285C108.535 191.52 108.626 191.761 108.737 192.008L109.121 192.879C109.364 193.432 109.475 193.937 109.454 194.396C109.432 194.854 109.229 195.244 108.844 195.564C108.524 195.83 108.173 195.976 107.791 196.001C107.406 196.026 107.025 195.946 106.648 195.762C106.268 195.578 105.927 195.303 105.623 194.939C105.317 194.571 105.111 194.188 105.004 193.792C104.896 193.397 104.886 193.022 104.974 192.666C105.06 192.308 105.243 192.004 105.524 191.755L106.081 192.425Z" fill="white"/>
<path d="M104.168 191.621L103.519 192.087L100.27 187.557L100.919 187.092L102.281 188.991L107.672 185.124L108.196 185.855L102.806 189.722L104.168 191.621Z" fill="white"/>
<path d="M106.025 182.628L106.516 183.434L98.7486 184.968L98.2654 184.174L103.194 177.978L103.685 178.784L99.4962 183.935L99.5264 183.985L106.025 182.628ZM103.364 183.84L101.387 180.592L102.068 180.176L104.046 183.425L103.364 183.84Z" fill="white"/>
<path d="M102.948 177.331L96.32 180.695L95.1834 178.455C94.9206 177.938 94.7933 177.468 94.8016 177.046C94.8077 176.625 94.9234 176.257 95.1487 175.942C95.374 175.626 95.6819 175.37 96.0724 175.172C96.4629 174.973 96.8497 174.877 97.2327 174.884C97.6158 174.89 97.9774 175.014 98.3175 175.257C98.6555 175.501 98.9548 175.879 99.2154 176.392L100.135 178.205L99.4104 178.573L98.5037 176.786C98.3241 176.433 98.1278 176.174 97.9147 176.011C97.7006 175.846 97.4739 175.762 97.2348 175.762C96.9924 175.76 96.7386 175.826 96.4732 175.961C96.2078 176.096 96.0011 176.263 95.853 176.463C95.7049 176.663 95.6322 176.899 95.6349 177.172C95.6355 177.446 95.7267 177.762 95.9085 178.12L96.6246 179.531L102.54 176.528L102.948 177.331ZM98.3869 175.722L100.536 172.58L101.009 173.512L98.8468 176.628L98.3869 175.722Z" fill="white"/>
<path d="M94.4503 175.02L93.7143 175.33L91.5539 170.191L92.2899 169.882L93.1957 172.036L99.3111 169.465L99.6599 170.295L93.5445 172.866L94.4503 175.02Z" fill="white"/>
<path d="M89.766 164.686L89.4806 163.833L94.1477 162.273C94.6296 162.112 95.0978 162.081 95.5523 162.182C96.0038 162.281 96.4072 162.499 96.7625 162.837C97.1155 163.176 97.3844 163.622 97.5693 164.175C97.7542 164.728 97.8074 165.246 97.729 165.728C97.6484 166.212 97.4578 166.63 97.1575 166.983C96.854 167.335 96.4614 167.591 95.9796 167.752L91.3124 169.312L91.0271 168.459L95.6254 166.921C95.9695 166.806 96.2505 166.628 96.4684 166.387C96.6839 166.147 96.8218 165.861 96.8819 165.529C96.939 165.197 96.902 164.834 96.7708 164.442C96.6396 164.049 96.4511 163.737 96.2053 163.506C95.9572 163.275 95.6752 163.129 95.3591 163.069C95.0401 163.007 94.7084 163.034 94.3642 163.149L89.766 164.686Z" fill="white"/>
<path d="M96.4451 160.818L89.2354 162.624L88.6253 160.188C88.4836 159.622 88.4699 159.134 88.5841 158.724C88.6954 158.312 88.9018 157.976 89.2033 157.716C89.5048 157.456 89.8679 157.273 90.2927 157.166C90.7175 157.06 91.1253 157.05 91.5162 157.137C91.9064 157.221 92.2498 157.417 92.5462 157.724C92.8404 158.032 93.0577 158.467 93.1982 159.028L93.6355 160.774L92.861 160.968L92.4307 159.25C92.3337 158.862 92.189 158.568 91.9964 158.367C91.8039 158.166 91.5805 158.041 91.3264 157.992C91.0694 157.942 90.7965 157.953 90.5079 158.025C90.2192 158.098 89.9746 158.216 89.774 158.381C89.5728 158.544 89.4373 158.76 89.3676 159.029C89.2956 159.299 89.3086 159.63 89.4068 160.022L89.7912 161.557L96.2264 159.945L96.4451 160.818Z" fill="white"/>
</g>
<defs>
<filter id="filter0_bd_1_487" x="-72.2841" y="-102.424" width="487.343" height="487.645" filterUnits="userSpaceOnUse" color-interpolation-filters="sRGB">
<feFlood flood-opacity="0" result="BackgroundImageFix"/>
<feGaussianBlur in="BackgroundImageFix" stdDeviation="68.343"/>
<feComposite in2="SourceAlpha" operator="in" result="effect1_backgroundBlur_1_487"/>
<feColorMatrix in="SourceAlpha" type="matrix" values="0 0 0 0 0 0 0 0 0 0 0 0 0 0 0 0 0 0 127 0" result="hardAlpha"/>
<feOffset dy="30.1776"/>
<feGaussianBlur stdDeviation="32.0637"/>
<feComposite in2="hardAlpha" operator="out"/>
<feColorMatrix type="matrix" values="0 0 0 0 0 0 0 0 0 0 0 0 0 0 0 0 0 0 0.55 0"/>
<feBlend mode="normal" in2="effect1_backgroundBlur_1_487" result="effect2_dropShadow_1_487"/>
<feBlend mode="normal" in="SourceGraphic" in2="effect2_dropShadow_1_487" result="shape"/>
</filter>
<linearGradient id="paint0_linear_1_487" x1="62.5613" y1="43.5277" x2="305.843" y2="88.2304" gradientUnits="userSpaceOnUse">
<stop offset="0.0899057" stop-color="#1F1F1F"/>
<stop offset="0.494792" stop-color="#3C3C3C"/>
<stop offset="0.948055" stop-color="#232323"/>
</linearGradient>
<linearGradient id="paint1_linear_1_487" x1="111.37" y1="100.145" x2="180.083" y2="230.055" gradientUnits="userSpaceOnUse">
<stop stop-color="#FFFDFD" stop-opacity="0.45"/>
<stop stop-color="#FFE3E2"/>
<stop offset="0.310417" stop-color="#FF7970"/>
<stop offset="0.602083" stop-color="#F85694"/>
<stop offset="0.994177" stop-color="#151212"/>
</linearGradient>
</defs>
</svg>
