<svg width="493" height="75" viewBox="0 0 493 75" fill="none" xmlns="http://www.w3.org/2000/svg">
<g filter="url(#filter0_b_1_585)">
<rect width="492.483" height="74.2414" rx="37.1207" fill="url(#paint0_linear_1_585)" fill-opacity="0.8"/>
<path d="M48.0709 28.1661L53.2527 42.8592H53.4573L58.6391 28.1661H60.855L54.4459 45.6206H52.2641L45.855 28.1661H48.0709ZM63.301 45.6206V32.5297H65.3124V45.6206H63.301ZM64.3238 30.3479C63.9317 30.3479 63.5937 30.2144 63.3096 29.9473C63.0312 29.6803 62.8919 29.3592 62.8919 28.9842C62.8919 28.6092 63.0312 28.2882 63.3096 28.0212C63.5937 27.7541 63.9317 27.6206 64.3238 27.6206C64.7158 27.6206 65.051 27.7541 65.3294 28.0212C65.6135 28.2882 65.7556 28.6092 65.7556 28.9842C65.7556 29.3592 65.6135 29.6803 65.3294 29.9473C65.051 30.2144 64.7158 30.3479 64.3238 30.3479ZM74.485 45.8933C73.2236 45.8933 72.1356 45.6149 71.2208 45.0581C70.3117 44.4956 69.61 43.7115 69.1157 42.7058C68.627 41.6945 68.3827 40.5183 68.3827 39.1774C68.3827 37.8365 68.627 36.6547 69.1157 35.632C69.61 34.6036 70.2975 33.8024 71.1782 33.2286C72.0645 32.649 73.0986 32.3592 74.2804 32.3592C74.9623 32.3592 75.6356 32.4729 76.3003 32.7002C76.9651 32.9274 77.5702 33.2967 78.1157 33.8081C78.6611 34.3138 79.0958 34.9842 79.4196 35.8195C79.7435 36.6547 79.9054 37.6831 79.9054 38.9047V39.757H69.8145V38.0183H77.86C77.86 37.2797 77.7123 36.6206 77.4168 36.0411C77.127 35.4615 76.7123 35.0041 76.1725 34.6689C75.6384 34.3337 75.0077 34.1661 74.2804 34.1661C73.4793 34.1661 72.7861 34.3649 72.2009 34.7627C71.6214 35.1547 71.1753 35.6661 70.8628 36.2967C70.5503 36.9274 70.3941 37.6036 70.3941 38.3252V39.4842C70.3941 40.4729 70.5645 41.3109 70.9054 41.9984C71.252 42.6803 71.7321 43.2002 72.3458 43.5581C72.9594 43.9104 73.6725 44.0865 74.485 44.0865C75.0134 44.0865 75.4907 44.0127 75.9168 43.8649C76.3486 43.7115 76.7208 43.4842 77.0333 43.1831C77.3458 42.8763 77.5873 42.4956 77.7577 42.0411L79.7009 42.5865C79.4964 43.2456 79.1526 43.8252 78.6696 44.3252C78.1867 44.8195 77.5901 45.2058 76.8799 45.4842C76.1696 45.757 75.3714 45.8933 74.485 45.8933ZM85.931 45.6206L81.9424 32.5297H84.056L86.8856 42.5524H87.0219L89.8174 32.5297H91.9651L94.7265 42.5183H94.8628L97.6924 32.5297H99.806L95.8174 45.6206H93.8401L90.9765 35.5638H90.7719L87.9083 45.6206H85.931ZM114.533 45.8933C113.351 45.8933 112.315 45.6121 111.422 45.0496C110.536 44.4871 109.843 43.7002 109.343 42.6888C108.849 41.6774 108.601 40.4956 108.601 39.1433C108.601 37.7797 108.849 36.5894 109.343 35.5723C109.843 34.5553 110.536 33.7655 111.422 33.203C112.315 32.6405 113.351 32.3592 114.533 32.3592C115.715 32.3592 116.749 32.6405 117.636 33.203C118.528 33.7655 119.221 34.5553 119.715 35.5723C120.215 36.5894 120.465 37.7797 120.465 39.1433C120.465 40.4956 120.215 41.6774 119.715 42.6888C119.221 43.7002 118.528 44.4871 117.636 45.0496C116.749 45.6121 115.715 45.8933 114.533 45.8933ZM114.533 44.0865C115.431 44.0865 116.17 43.8564 116.749 43.3962C117.329 42.9359 117.758 42.3308 118.036 41.5808C118.315 40.8308 118.454 40.0183 118.454 39.1433C118.454 38.2683 118.315 37.453 118.036 36.6973C117.758 35.9416 117.329 35.3308 116.749 34.8649C116.17 34.399 115.431 34.1661 114.533 34.1661C113.636 34.1661 112.897 34.399 112.317 34.8649C111.738 35.3308 111.309 35.9416 111.03 36.6973C110.752 37.453 110.613 38.2683 110.613 39.1433C110.613 40.0183 110.752 40.8308 111.03 41.5808C111.309 42.3308 111.738 42.9359 112.317 43.3962C112.897 43.8564 113.636 44.0865 114.533 44.0865ZM131.785 40.2683V32.5297H133.797V45.6206H131.785V43.4047H131.649C131.342 44.0695 130.865 44.6348 130.217 45.1007C129.57 45.5609 128.751 45.7911 127.763 45.7911C126.945 45.7911 126.217 45.6121 125.581 45.2541C124.945 44.8905 124.445 44.345 124.081 43.6178C123.717 42.8848 123.535 41.9615 123.535 40.8479V32.5297H125.547V40.7115C125.547 41.6661 125.814 42.4274 126.348 42.9956C126.888 43.5638 127.575 43.8479 128.41 43.8479C128.91 43.8479 129.419 43.72 129.936 43.4644C130.459 43.2087 130.896 42.8166 131.248 42.2882C131.606 41.7598 131.785 41.0865 131.785 40.2683ZM137.481 45.6206V32.5297H139.424V34.507H139.56C139.799 33.8592 140.231 33.3337 140.856 32.9303C141.481 32.5269 142.185 32.3252 142.969 32.3252C143.117 32.3252 143.302 32.328 143.523 32.3337C143.745 32.3394 143.913 32.3479 144.026 32.3592V34.4047C143.958 34.3877 143.802 34.3621 143.557 34.328C143.319 34.2882 143.066 34.2683 142.799 34.2683C142.163 34.2683 141.594 34.4019 141.094 34.6689C140.6 34.9303 140.208 35.2939 139.918 35.7598C139.634 36.22 139.492 36.7456 139.492 37.3365V45.6206H137.481ZM158.854 32.5297V34.2342H152.07V32.5297H158.854ZM154.047 29.3933H156.058V41.8706C156.058 42.4388 156.141 42.8649 156.305 43.149C156.476 43.4274 156.692 43.6149 156.953 43.7115C157.22 43.8024 157.501 43.8479 157.797 43.8479C158.018 43.8479 158.2 43.8365 158.342 43.8138C158.484 43.7854 158.598 43.7627 158.683 43.7456L159.092 45.5524C158.956 45.6036 158.766 45.6547 158.521 45.7058C158.277 45.7627 157.967 45.7911 157.592 45.7911C157.024 45.7911 156.467 45.6689 155.922 45.4246C155.382 45.1803 154.933 44.8081 154.575 44.3081C154.223 43.8081 154.047 43.1774 154.047 42.4161V29.3933ZM167.057 45.8933C165.875 45.8933 164.838 45.6121 163.946 45.0496C163.06 44.4871 162.366 43.7002 161.866 42.6888C161.372 41.6774 161.125 40.4956 161.125 39.1433C161.125 37.7797 161.372 36.5894 161.866 35.5723C162.366 34.5553 163.06 33.7655 163.946 33.203C164.838 32.6405 165.875 32.3592 167.057 32.3592C168.239 32.3592 169.273 32.6405 170.159 33.203C171.051 33.7655 171.744 34.5553 172.239 35.5723C172.739 36.5894 172.989 37.7797 172.989 39.1433C172.989 40.4956 172.739 41.6774 172.239 42.6888C171.744 43.7002 171.051 44.4871 170.159 45.0496C169.273 45.6121 168.239 45.8933 167.057 45.8933ZM167.057 44.0865C167.954 44.0865 168.693 43.8564 169.273 43.3962C169.852 42.9359 170.281 42.3308 170.56 41.5808C170.838 40.8308 170.977 40.0183 170.977 39.1433C170.977 38.2683 170.838 37.453 170.56 36.6973C170.281 35.9416 169.852 35.3308 169.273 34.8649C168.693 34.399 167.954 34.1661 167.057 34.1661C166.159 34.1661 165.42 34.399 164.841 34.8649C164.261 35.3308 163.832 35.9416 163.554 36.6973C163.275 37.453 163.136 38.2683 163.136 39.1433C163.136 40.0183 163.275 40.8308 163.554 41.5808C163.832 42.3308 164.261 42.9359 164.841 43.3962C165.42 43.8564 166.159 44.0865 167.057 44.0865ZM176.059 50.5297V32.5297H178.002V34.6092H178.241C178.388 34.382 178.593 34.0922 178.854 33.7399C179.121 33.382 179.502 33.0638 179.996 32.7854C180.496 32.5013 181.172 32.3592 182.025 32.3592C183.127 32.3592 184.099 32.6348 184.94 33.1859C185.78 33.7371 186.437 34.5183 186.908 35.5297C187.38 36.5411 187.616 37.7342 187.616 39.1092C187.616 40.4956 187.38 41.6973 186.908 42.7144C186.437 43.7257 185.783 44.5098 184.948 45.0666C184.113 45.6178 183.15 45.8933 182.059 45.8933C181.218 45.8933 180.545 45.7541 180.039 45.4757C179.533 45.1916 179.144 44.8706 178.871 44.5127C178.599 44.149 178.388 43.8479 178.241 43.6092H178.07V50.5297H176.059ZM178.036 39.0752C178.036 40.0638 178.181 40.9359 178.471 41.6916C178.761 42.4416 179.184 43.0297 179.741 43.4558C180.297 43.8763 180.979 44.0865 181.786 44.0865C182.627 44.0865 183.329 43.8649 183.891 43.4217C184.459 42.9729 184.886 42.3706 185.17 41.6149C185.459 40.8536 185.604 40.007 185.604 39.0752C185.604 38.1547 185.462 37.3252 185.178 36.5865C184.9 35.8422 184.476 35.2541 183.908 34.8223C183.346 34.3848 182.638 34.1661 181.786 34.1661C180.968 34.1661 180.28 34.3734 179.724 34.7882C179.167 35.1973 178.746 35.7712 178.462 36.5098C178.178 37.2428 178.036 38.0979 178.036 39.0752ZM197.434 50.5297V32.5297H199.377V34.6092H199.616C199.763 34.382 199.968 34.0922 200.229 33.7399C200.496 33.382 200.877 33.0638 201.371 32.7854C201.871 32.5013 202.547 32.3592 203.4 32.3592C204.502 32.3592 205.474 32.6348 206.315 33.1859C207.155 33.7371 207.812 34.5183 208.283 35.5297C208.755 36.5411 208.991 37.7342 208.991 39.1092C208.991 40.4956 208.755 41.6973 208.283 42.7144C207.812 43.7257 207.158 44.5098 206.323 45.0666C205.488 45.6178 204.525 45.8933 203.434 45.8933C202.593 45.8933 201.92 45.7541 201.414 45.4757C200.908 45.1916 200.519 44.8706 200.246 44.5127C199.974 44.149 199.763 43.8479 199.616 43.6092H199.445V50.5297H197.434ZM199.411 39.0752C199.411 40.0638 199.556 40.9359 199.846 41.6916C200.136 42.4416 200.559 43.0297 201.116 43.4558C201.672 43.8763 202.354 44.0865 203.161 44.0865C204.002 44.0865 204.704 43.8649 205.266 43.4217C205.834 42.9729 206.261 42.3706 206.545 41.6149C206.834 40.8536 206.979 40.007 206.979 39.0752C206.979 38.1547 206.837 37.3252 206.553 36.5865C206.275 35.8422 205.851 35.2541 205.283 34.8223C204.721 34.3848 204.013 34.1661 203.161 34.1661C202.343 34.1661 201.655 34.3734 201.099 34.7882C200.542 35.1973 200.121 35.7712 199.837 36.5098C199.553 37.2428 199.411 38.0979 199.411 39.0752ZM217.547 45.8933C216.286 45.8933 215.198 45.6149 214.283 45.0581C213.374 44.4956 212.672 43.7115 212.178 42.7058C211.69 41.6945 211.445 40.5183 211.445 39.1774C211.445 37.8365 211.69 36.6547 212.178 35.632C212.672 34.6036 213.36 33.8024 214.241 33.2286C215.127 32.649 216.161 32.3592 217.343 32.3592C218.025 32.3592 218.698 32.4729 219.363 32.7002C220.028 32.9274 220.633 33.2967 221.178 33.8081C221.724 34.3138 222.158 34.9842 222.482 35.8195C222.806 36.6547 222.968 37.6831 222.968 38.9047V39.757H212.877V38.0183H220.922C220.922 37.2797 220.775 36.6206 220.479 36.0411C220.19 35.4615 219.775 35.0041 219.235 34.6689C218.701 34.3337 218.07 34.1661 217.343 34.1661C216.542 34.1661 215.849 34.3649 215.263 34.7627C214.684 35.1547 214.238 35.6661 213.925 36.2967C213.613 36.9274 213.457 37.6036 213.457 38.3252V39.4842C213.457 40.4729 213.627 41.3109 213.968 41.9984C214.315 42.6803 214.795 43.2002 215.408 43.5581C216.022 43.9104 216.735 44.0865 217.547 44.0865C218.076 44.0865 218.553 44.0127 218.979 43.8649C219.411 43.7115 219.783 43.4842 220.096 43.1831C220.408 42.8763 220.65 42.4956 220.82 42.0411L222.763 42.5865C222.559 43.2456 222.215 43.8252 221.732 44.3252C221.249 44.8195 220.653 45.2058 219.942 45.4842C219.232 45.757 218.434 45.8933 217.547 45.8933ZM226.028 45.6206V32.5297H227.971V34.507H228.107C228.346 33.8592 228.778 33.3337 229.403 32.9303C230.028 32.5269 230.732 32.3252 231.516 32.3252C231.664 32.3252 231.849 32.328 232.07 32.3337C232.292 32.3394 232.459 32.3479 232.573 32.3592V34.4047C232.505 34.3877 232.349 34.3621 232.104 34.328C231.866 34.2882 231.613 34.2683 231.346 34.2683C230.709 34.2683 230.141 34.4019 229.641 34.6689C229.147 34.9303 228.755 35.2939 228.465 35.7598C228.181 36.22 228.039 36.7456 228.039 37.3365V45.6206H226.028ZM241.607 32.5297V34.2342H234.55V32.5297H241.607ZM236.664 45.6206V30.7229C236.664 29.9729 236.84 29.3479 237.192 28.8479C237.545 28.3479 238.002 27.9729 238.565 27.7229C239.127 27.4729 239.721 27.3479 240.346 27.3479C240.84 27.3479 241.244 27.3877 241.556 27.4672C241.869 27.5467 242.101 27.6206 242.255 27.6888L241.675 29.4274C241.573 29.3933 241.431 29.3507 241.249 29.2996C241.073 29.2484 240.84 29.2229 240.55 29.2229C239.886 29.2229 239.405 29.3905 239.11 29.7257C238.82 30.0609 238.675 30.5524 238.675 31.2002V45.6206H236.664ZM249.205 45.8933C248.023 45.8933 246.986 45.6121 246.094 45.0496C245.208 44.4871 244.515 43.7002 244.015 42.6888C243.52 41.6774 243.273 40.4956 243.273 39.1433C243.273 37.7797 243.52 36.5894 244.015 35.5723C244.515 34.5553 245.208 33.7655 246.094 33.203C246.986 32.6405 248.023 32.3592 249.205 32.3592C250.387 32.3592 251.421 32.6405 252.307 33.203C253.199 33.7655 253.893 34.5553 254.387 35.5723C254.887 36.5894 255.137 37.7797 255.137 39.1433C255.137 40.4956 254.887 41.6774 254.387 42.6888C253.893 43.7002 253.199 44.4871 252.307 45.0496C251.421 45.6121 250.387 45.8933 249.205 45.8933ZM249.205 44.0865C250.103 44.0865 250.842 43.8564 251.421 43.3962C252.001 42.9359 252.43 42.3308 252.708 41.5808C252.986 40.8308 253.126 40.0183 253.126 39.1433C253.126 38.2683 252.986 37.453 252.708 36.6973C252.43 35.9416 252.001 35.3308 251.421 34.8649C250.842 34.399 250.103 34.1661 249.205 34.1661C248.307 34.1661 247.569 34.399 246.989 34.8649C246.41 35.3308 245.981 35.9416 245.702 36.6973C245.424 37.453 245.285 38.2683 245.285 39.1433C245.285 40.0183 245.424 40.8308 245.702 41.5808C245.981 42.3308 246.41 42.9359 246.989 43.3962C247.569 43.8564 248.307 44.0865 249.205 44.0865ZM258.207 45.6206V32.5297H260.15V34.507H260.287C260.525 33.8592 260.957 33.3337 261.582 32.9303C262.207 32.5269 262.912 32.3252 263.696 32.3252C263.844 32.3252 264.028 32.328 264.25 32.3337C264.471 32.3394 264.639 32.3479 264.753 32.3592V34.4047C264.685 34.3877 264.528 34.3621 264.284 34.328C264.045 34.2882 263.793 34.2683 263.525 34.2683C262.889 34.2683 262.321 34.4019 261.821 34.6689C261.327 34.9303 260.935 35.2939 260.645 35.7598C260.361 36.22 260.219 36.7456 260.219 37.3365V45.6206H258.207ZM267.137 45.6206V32.5297H269.08V34.5752H269.251C269.523 33.8763 269.964 33.3337 270.572 32.9473C271.18 32.5553 271.91 32.3592 272.762 32.3592C273.626 32.3592 274.344 32.5553 274.918 32.9473C275.498 33.3337 275.949 33.8763 276.273 34.5752H276.41C276.745 33.899 277.248 33.3621 277.918 32.9644C278.589 32.5609 279.393 32.3592 280.33 32.3592C281.501 32.3592 282.458 32.7257 283.202 33.4587C283.947 34.1859 284.319 35.3195 284.319 36.8592V45.6206H282.307V36.8592C282.307 35.8933 282.043 35.203 281.515 34.7882C280.986 34.3734 280.364 34.1661 279.648 34.1661C278.728 34.1661 278.015 34.4445 277.509 35.0013C277.003 35.5524 276.751 36.2513 276.751 37.0979V45.6206H274.705V36.6547C274.705 35.9104 274.464 35.3109 273.981 34.8564C273.498 34.3962 272.876 34.1661 272.114 34.1661C271.592 34.1661 271.103 34.3053 270.648 34.5837C270.199 34.8621 269.836 35.2484 269.557 35.7428C269.285 36.2314 269.148 36.7967 269.148 37.4388V45.6206H267.137ZM287.996 45.6206V32.5297H290.008V45.6206H287.996ZM289.019 30.3479C288.627 30.3479 288.289 30.2144 288.005 29.9473C287.726 29.6803 287.587 29.3592 287.587 28.9842C287.587 28.6092 287.726 28.2882 288.005 28.0212C288.289 27.7541 288.627 27.6206 289.019 27.6206C289.411 27.6206 289.746 27.7541 290.025 28.0212C290.309 28.2882 290.451 28.6092 290.451 28.9842C290.451 29.3592 290.309 29.6803 290.025 29.9473C289.746 30.2144 289.411 30.3479 289.019 30.3479ZM295.703 37.7456V45.6206H293.692V32.5297H295.635V34.5752H295.805C296.112 33.9104 296.578 33.3763 297.203 32.9729C297.828 32.5638 298.635 32.3592 299.623 32.3592C300.51 32.3592 301.285 32.5411 301.95 32.9047C302.615 33.2627 303.132 33.8081 303.501 34.5411C303.871 35.2683 304.055 36.1888 304.055 37.3024V45.6206H302.044V37.4388C302.044 36.4104 301.777 35.6092 301.243 35.0354C300.709 34.4558 299.976 34.1661 299.044 34.1661C298.402 34.1661 297.828 34.3053 297.322 34.5837C296.822 34.8621 296.427 35.2683 296.138 35.8024C295.848 36.3365 295.703 36.9842 295.703 37.7456ZM313.015 50.8024C312.043 50.8024 311.208 50.6774 310.509 50.4274C309.81 50.1831 309.228 49.8592 308.762 49.4558C308.302 49.0581 307.935 48.632 307.663 48.1774L309.265 47.0524C309.447 47.2911 309.677 47.5638 309.955 47.8706C310.234 48.1831 310.614 48.453 311.097 48.6803C311.586 48.9132 312.225 49.0297 313.015 49.0297C314.072 49.0297 314.944 48.774 315.631 48.2627C316.319 47.7513 316.663 46.9502 316.663 45.8592V43.2002H316.492C316.344 43.4388 316.134 43.7342 315.861 44.0865C315.594 44.4331 315.208 44.7428 314.702 45.0155C314.202 45.2825 313.526 45.4161 312.674 45.4161C311.617 45.4161 310.668 45.1661 309.827 44.6661C308.992 44.1661 308.33 43.4388 307.842 42.4842C307.359 41.5297 307.117 40.3706 307.117 39.007C307.117 37.6661 307.353 36.4984 307.824 35.5041C308.296 34.5041 308.952 33.7314 309.793 33.1859C310.634 32.6348 311.606 32.3592 312.708 32.3592C313.56 32.3592 314.236 32.5013 314.736 32.7854C315.242 33.0638 315.628 33.382 315.895 33.7399C316.168 34.0922 316.378 34.382 316.526 34.6092H316.731V32.5297H318.674V45.9956C318.674 47.1206 318.418 48.0354 317.907 48.7399C317.401 49.4502 316.719 49.97 315.861 50.2996C315.009 50.6348 314.06 50.8024 313.015 50.8024ZM312.947 43.6092C313.753 43.6092 314.435 43.4246 314.992 43.0553C315.549 42.6859 315.972 42.1547 316.262 41.4615C316.552 40.7683 316.697 39.9388 316.697 38.9729C316.697 38.0297 316.555 37.1973 316.27 36.4757C315.986 35.7541 315.566 35.1888 315.009 34.7797C314.452 34.3706 313.765 34.1661 312.947 34.1661C312.094 34.1661 311.384 34.382 310.816 34.8138C310.253 35.2456 309.83 35.8252 309.546 36.5524C309.268 37.2797 309.128 38.0865 309.128 38.9729C309.128 39.882 309.27 40.6859 309.555 41.3848C309.844 42.078 310.27 42.6234 310.833 43.0212C311.401 43.4132 312.106 43.6092 312.947 43.6092ZM334.424 45.8933C333.197 45.8933 332.14 45.6036 331.253 45.024C330.367 44.4445 329.685 43.6462 329.208 42.6291C328.731 41.6121 328.492 40.4502 328.492 39.1433C328.492 37.8138 328.736 36.6405 329.225 35.6234C329.719 34.6007 330.407 33.8024 331.288 33.2286C332.174 32.649 333.208 32.3592 334.39 32.3592C335.31 32.3592 336.14 32.5297 336.878 32.8706C337.617 33.2115 338.222 33.6888 338.694 34.3024C339.165 34.9161 339.458 35.632 339.572 36.4502H337.56C337.407 35.8536 337.066 35.3252 336.538 34.8649C336.015 34.399 335.31 34.1661 334.424 34.1661C333.64 34.1661 332.952 34.3706 332.361 34.7797C331.776 35.1831 331.319 35.7541 330.989 36.4928C330.665 37.2257 330.503 38.0865 330.503 39.0752C330.503 40.0865 330.663 40.9672 330.981 41.7172C331.305 42.4672 331.759 43.0496 332.344 43.4644C332.935 43.8791 333.628 44.0865 334.424 44.0865C334.947 44.0865 335.421 43.9956 335.847 43.8138C336.273 43.632 336.634 43.3706 336.93 43.0297C337.225 42.6888 337.435 42.2797 337.56 41.8024H339.572C339.458 42.5752 339.177 43.2712 338.728 43.8905C338.285 44.5041 337.697 44.9928 336.964 45.3564C336.236 45.7144 335.39 45.8933 334.424 45.8933ZM346.364 45.9274C345.535 45.9274 344.782 45.7712 344.106 45.4587C343.43 45.1405 342.893 44.6831 342.495 44.0865C342.097 43.4842 341.898 42.757 341.898 41.9047C341.898 41.1547 342.046 40.5467 342.342 40.0808C342.637 39.6092 343.032 39.2399 343.526 38.9729C344.02 38.7058 344.566 38.507 345.163 38.3763C345.765 38.2399 346.37 38.132 346.978 38.0524C347.773 37.9502 348.418 37.8734 348.913 37.8223C349.413 37.7655 349.776 37.6717 350.003 37.5411C350.236 37.4104 350.353 37.1831 350.353 36.8592V36.7911C350.353 35.9502 350.123 35.2967 349.663 34.8308C349.208 34.3649 348.518 34.132 347.592 34.132C346.631 34.132 345.878 34.3422 345.333 34.7627C344.788 35.1831 344.404 35.632 344.182 36.1092L342.273 35.4274C342.614 34.632 343.069 34.0127 343.637 33.5695C344.211 33.1206 344.836 32.8081 345.512 32.632C346.194 32.4502 346.864 32.3592 347.523 32.3592C347.944 32.3592 348.427 32.4104 348.972 32.5127C349.523 32.6092 350.055 32.8109 350.566 33.1178C351.083 33.4246 351.512 33.8877 351.853 34.507C352.194 35.1263 352.364 35.9558 352.364 36.9956V45.6206H350.353V43.8479H350.251C350.114 44.132 349.887 44.4359 349.569 44.7598C349.251 45.0837 348.827 45.3592 348.299 45.5865C347.77 45.8138 347.126 45.9274 346.364 45.9274ZM346.671 44.1206C347.467 44.1206 348.137 43.9644 348.682 43.6519C349.234 43.3394 349.648 42.9359 349.927 42.4416C350.211 41.9473 350.353 41.4274 350.353 40.882V39.0411C350.268 39.1433 350.08 39.2371 349.79 39.3223C349.506 39.4019 349.177 39.4729 348.802 39.5354C348.432 39.5922 348.072 39.6433 347.719 39.6888C347.373 39.7286 347.092 39.7627 346.876 39.7911C346.353 39.8592 345.864 39.97 345.41 40.1234C344.961 40.2712 344.597 40.4956 344.319 40.7967C344.046 41.0922 343.91 41.4956 343.91 42.007C343.91 42.7058 344.168 43.2342 344.685 43.5922C345.208 43.9445 345.87 44.1206 346.671 44.1206ZM361.729 32.5297V34.2342H354.945V32.5297H361.729ZM356.922 29.3933H358.933V41.8706C358.933 42.4388 359.016 42.8649 359.18 43.149C359.351 43.4274 359.567 43.6149 359.828 43.7115C360.095 43.8024 360.376 43.8479 360.672 43.8479C360.893 43.8479 361.075 43.8365 361.217 43.8138C361.359 43.7854 361.473 43.7627 361.558 43.7456L361.967 45.5524C361.831 45.6036 361.641 45.6547 361.396 45.7058C361.152 45.7627 360.842 45.7911 360.467 45.7911C359.899 45.7911 359.342 45.6689 358.797 45.4246C358.257 45.1803 357.808 44.8081 357.45 44.3081C357.098 43.8081 356.922 43.1774 356.922 42.4161V29.3933ZM370.102 45.8933C368.841 45.8933 367.753 45.6149 366.838 45.0581C365.929 44.4956 365.227 43.7115 364.733 42.7058C364.244 41.6945 364 40.5183 364 39.1774C364 37.8365 364.244 36.6547 364.733 35.632C365.227 34.6036 365.915 33.8024 366.795 33.2286C367.682 32.649 368.716 32.3592 369.898 32.3592C370.579 32.3592 371.253 32.4729 371.918 32.7002C372.582 32.9274 373.187 33.2967 373.733 33.8081C374.278 34.3138 374.713 34.9842 375.037 35.8195C375.361 36.6547 375.523 37.6831 375.523 38.9047V39.757H365.432V38.0183H373.477C373.477 37.2797 373.329 36.6206 373.034 36.0411C372.744 35.4615 372.329 35.0041 371.79 34.6689C371.256 34.3337 370.625 34.1661 369.898 34.1661C369.096 34.1661 368.403 34.3649 367.818 34.7627C367.239 35.1547 366.793 35.6661 366.48 36.2967C366.168 36.9274 366.011 37.6036 366.011 38.3252V39.4842C366.011 40.4729 366.182 41.3109 366.523 41.9984C366.869 42.6803 367.349 43.2002 367.963 43.5581C368.577 43.9104 369.29 44.0865 370.102 44.0865C370.631 44.0865 371.108 44.0127 371.534 43.8649C371.966 43.7115 372.338 43.4842 372.65 43.1831C372.963 42.8763 373.204 42.4956 373.375 42.0411L375.318 42.5865C375.114 43.2456 374.77 43.8252 374.287 44.3252C373.804 44.8195 373.207 45.2058 372.497 45.4842C371.787 45.757 370.989 45.8933 370.102 45.8933ZM383.866 50.8024C382.895 50.8024 382.06 50.6774 381.361 50.4274C380.662 50.1831 380.079 49.8592 379.614 49.4558C379.153 49.0581 378.787 48.632 378.514 48.1774L380.116 47.0524C380.298 47.2911 380.528 47.5638 380.807 47.8706C381.085 48.1831 381.466 48.453 381.949 48.6803C382.437 48.9132 383.077 49.0297 383.866 49.0297C384.923 49.0297 385.795 48.774 386.483 48.2627C387.17 47.7513 387.514 46.9502 387.514 45.8592V43.2002H387.344C387.196 43.4388 386.986 43.7342 386.713 44.0865C386.446 44.4331 386.06 44.7428 385.554 45.0155C385.054 45.2825 384.378 45.4161 383.525 45.4161C382.469 45.4161 381.52 45.1661 380.679 44.6661C379.844 44.1661 379.182 43.4388 378.693 42.4842C378.21 41.5297 377.969 40.3706 377.969 39.007C377.969 37.6661 378.204 36.4984 378.676 35.5041C379.148 34.5041 379.804 33.7314 380.645 33.1859C381.486 32.6348 382.457 32.3592 383.56 32.3592C384.412 32.3592 385.088 32.5013 385.588 32.7854C386.094 33.0638 386.48 33.382 386.747 33.7399C387.02 34.0922 387.23 34.382 387.378 34.6092H387.582V32.5297H389.525V45.9956C389.525 47.1206 389.27 48.0354 388.758 48.7399C388.253 49.4502 387.571 49.97 386.713 50.2996C385.861 50.6348 384.912 50.8024 383.866 50.8024ZM383.798 43.6092C384.605 43.6092 385.287 43.4246 385.844 43.0553C386.4 42.6859 386.824 42.1547 387.114 41.4615C387.403 40.7683 387.548 39.9388 387.548 38.9729C387.548 38.0297 387.406 37.1973 387.122 36.4757C386.838 35.7541 386.418 35.1888 385.861 34.7797C385.304 34.3706 384.616 34.1661 383.798 34.1661C382.946 34.1661 382.236 34.382 381.668 34.8138C381.105 35.2456 380.682 35.8252 380.398 36.5524C380.119 37.2797 379.98 38.0865 379.98 38.9729C379.98 39.882 380.122 40.6859 380.406 41.3848C380.696 42.078 381.122 42.6234 381.685 43.0212C382.253 43.4132 382.957 43.6092 383.798 43.6092ZM398.525 45.8933C397.344 45.8933 396.307 45.6121 395.415 45.0496C394.528 44.4871 393.835 43.7002 393.335 42.6888C392.841 41.6774 392.594 40.4956 392.594 39.1433C392.594 37.7797 392.841 36.5894 393.335 35.5723C393.835 34.5553 394.528 33.7655 395.415 33.203C396.307 32.6405 397.344 32.3592 398.525 32.3592C399.707 32.3592 400.741 32.6405 401.628 33.203C402.52 33.7655 403.213 34.5553 403.707 35.5723C404.207 36.5894 404.457 37.7797 404.457 39.1433C404.457 40.4956 404.207 41.6774 403.707 42.6888C403.213 43.7002 402.52 44.4871 401.628 45.0496C400.741 45.6121 399.707 45.8933 398.525 45.8933ZM398.525 44.0865C399.423 44.0865 400.162 43.8564 400.741 43.3962C401.321 42.9359 401.75 42.3308 402.028 41.5808C402.307 40.8308 402.446 40.0183 402.446 39.1433C402.446 38.2683 402.307 37.453 402.028 36.6973C401.75 35.9416 401.321 35.3308 400.741 34.8649C400.162 34.399 399.423 34.1661 398.525 34.1661C397.628 34.1661 396.889 34.399 396.31 34.8649C395.73 35.3308 395.301 35.9416 395.023 36.6973C394.744 37.453 394.605 38.2683 394.605 39.1433C394.605 40.0183 394.744 40.8308 395.023 41.5808C395.301 42.3308 395.73 42.9359 396.31 43.3962C396.889 43.8564 397.628 44.0865 398.525 44.0865ZM407.528 45.6206V32.5297H409.471V34.507H409.607C409.846 33.8592 410.278 33.3337 410.903 32.9303C411.528 32.5269 412.232 32.3252 413.016 32.3252C413.164 32.3252 413.349 32.328 413.57 32.3337C413.792 32.3394 413.959 32.3479 414.073 32.3592V34.4047C414.005 34.3877 413.849 34.3621 413.604 34.328C413.366 34.2882 413.113 34.2683 412.846 34.2683C412.209 34.2683 411.641 34.4019 411.141 34.6689C410.647 34.9303 410.255 35.2939 409.965 35.7598C409.681 36.22 409.539 36.7456 409.539 37.3365V45.6206H407.528ZM416.457 45.6206V32.5297H418.469V45.6206H416.457ZM417.48 30.3479C417.088 30.3479 416.75 30.2144 416.466 29.9473C416.187 29.6803 416.048 29.3592 416.048 28.9842C416.048 28.6092 416.187 28.2882 416.466 28.0212C416.75 27.7541 417.088 27.6206 417.48 27.6206C417.872 27.6206 418.207 27.7541 418.486 28.0212C418.77 28.2882 418.912 28.6092 418.912 28.9842C418.912 29.3592 418.77 29.6803 418.486 29.9473C418.207 30.2144 417.872 30.3479 417.48 30.3479ZM427.641 45.8933C426.38 45.8933 425.292 45.6149 424.377 45.0581C423.468 44.4956 422.766 43.7115 422.272 42.7058C421.783 41.6945 421.539 40.5183 421.539 39.1774C421.539 37.8365 421.783 36.6547 422.272 35.632C422.766 34.6036 423.454 33.8024 424.334 33.2286C425.221 32.649 426.255 32.3592 427.437 32.3592C428.119 32.3592 428.792 32.4729 429.457 32.7002C430.121 32.9274 430.726 33.2967 431.272 33.8081C431.817 34.3138 432.252 34.9842 432.576 35.8195C432.9 36.6547 433.062 37.6831 433.062 38.9047V39.757H422.971V38.0183H431.016C431.016 37.2797 430.869 36.6206 430.573 36.0411C430.283 35.4615 429.869 35.0041 429.329 34.6689C428.795 34.3337 428.164 34.1661 427.437 34.1661C426.636 34.1661 425.942 34.3649 425.357 34.7627C424.778 35.1547 424.332 35.6661 424.019 36.2967C423.707 36.9274 423.55 37.6036 423.55 38.3252V39.4842C423.55 40.4729 423.721 41.3109 424.062 41.9984C424.408 42.6803 424.888 43.2002 425.502 43.5581C426.116 43.9104 426.829 44.0865 427.641 44.0865C428.17 44.0865 428.647 44.0127 429.073 43.8649C429.505 43.7115 429.877 43.4842 430.19 43.1831C430.502 42.8763 430.744 42.4956 430.914 42.0411L432.857 42.5865C432.653 43.2456 432.309 43.8252 431.826 44.3252C431.343 44.8195 430.746 45.2058 430.036 45.4842C429.326 45.757 428.528 45.8933 427.641 45.8933ZM445.394 35.4615L443.587 35.9729C443.474 35.6717 443.306 35.3791 443.084 35.095C442.869 34.8053 442.573 34.5666 442.198 34.3791C441.823 34.1916 441.343 34.0979 440.758 34.0979C439.957 34.0979 439.289 34.2825 438.755 34.6519C438.226 35.0155 437.962 35.4786 437.962 36.0411C437.962 36.5411 438.144 36.9359 438.508 37.2257C438.871 37.5155 439.44 37.757 440.212 37.9502L442.155 38.4274C443.326 38.7115 444.198 39.1462 444.772 39.7314C445.346 40.3109 445.633 41.0581 445.633 41.9729C445.633 42.7229 445.417 43.3933 444.985 43.9842C444.559 44.5752 443.962 45.0411 443.195 45.382C442.428 45.7229 441.536 45.8933 440.519 45.8933C439.184 45.8933 438.079 45.6036 437.204 45.024C436.329 44.4445 435.775 43.5979 435.542 42.4842L437.451 42.007C437.633 42.7115 437.976 43.2399 438.482 43.5922C438.994 43.9445 439.661 44.1206 440.485 44.1206C441.422 44.1206 442.167 43.9217 442.718 43.524C443.275 43.1206 443.553 42.6377 443.553 42.0752C443.553 41.6206 443.394 41.2399 443.076 40.9331C442.758 40.6206 442.269 40.3877 441.61 40.2342L439.428 39.7229C438.229 39.4388 437.349 38.9984 436.786 38.4019C436.229 37.7996 435.951 37.0467 435.951 36.1433C435.951 35.4047 436.158 34.7513 436.573 34.1831C436.994 33.6149 437.565 33.1689 438.286 32.845C439.013 32.5212 439.837 32.3592 440.758 32.3592C442.053 32.3592 443.07 32.6433 443.809 33.2115C444.553 33.7797 445.082 34.5297 445.394 35.4615Z" fill="white"/>
</g>
<defs>
<filter id="filter0_b_1_585" x="-16.9655" y="-16.9655" width="526.414" height="108.172" filterUnits="userSpaceOnUse" color-interpolation-filters="sRGB">
<feFlood flood-opacity="0" result="BackgroundImageFix"/>
<feGaussianBlur in="BackgroundImageFix" stdDeviation="8.48276"/>
<feComposite in2="SourceAlpha" operator="in" result="effect1_backgroundBlur_1_585"/>
<feBlend mode="normal" in="SourceGraphic" in2="effect1_backgroundBlur_1_585" result="shape"/>
</filter>
<linearGradient id="paint0_linear_1_585" x1="-24.6874" y1="-4.38699" x2="1.74612" y2="157.276" gradientUnits="userSpaceOnUse">
<stop stop-color="#FFFDFD" stop-opacity="0.45"/>
<stop stop-color="#FFE3E2"/>
<stop offset="0.294792" stop-color="#F16633"/>
<stop offset="0.648958" stop-color="#FD2D7D"/>
<stop offset="0.994177" stop-color="#151212"/>
</linearGradient>
</defs>
</svg>
