<svg width="82" height="82" viewBox="0 0 82 82" fill="none" xmlns="http://www.w3.org/2000/svg">
<g filter="url(#filter0_bi_370_110)">
<circle cx="40.2258" cy="40.2258" r="40.2258" transform="matrix(-1 0 0 1 81.4238 0.577393)" fill="white" fill-opacity="0.1"/>
<circle cx="40.2258" cy="40.2258" r="39.9919" transform="matrix(-1 0 0 1 81.4238 0.577393)" stroke="url(#paint0_linear_370_110)" stroke-width="0.467742"/>
</g>
<path d="M22.6084 38.2054L50.6303 26.8358C51.0677 26.6584 51.4827 27.1335 51.2482 27.5431L44.2699 39.7274C44.1878 39.8707 44.1823 40.0454 44.2553 40.1936L51.2481 54.4013C51.4643 54.8406 50.9819 55.2947 50.5565 55.0524L22.5492 39.0974C22.1887 38.892 22.2239 38.3614 22.6084 38.2054Z" fill="#DBDEE9"/>
<defs>
<filter id="filter0_bi_370_110" x="-21.9471" y="-22.342" width="126.29" height="126.29" filterUnits="userSpaceOnUse" color-interpolation-filters="sRGB">
<feFlood flood-opacity="0" result="BackgroundImageFix"/>
<feGaussianBlur in="BackgroundImageFix" stdDeviation="11.4597"/>
<feComposite in2="SourceAlpha" operator="in" result="effect1_backgroundBlur_370_110"/>
<feBlend mode="normal" in="SourceGraphic" in2="effect1_backgroundBlur_370_110" result="shape"/>
<feColorMatrix in="SourceAlpha" type="matrix" values="0 0 0 0 0 0 0 0 0 0 0 0 0 0 0 0 0 0 127 0" result="hardAlpha"/>
<feOffset dy="10.2903"/>
<feGaussianBlur stdDeviation="6.08064"/>
<feComposite in2="hardAlpha" operator="arithmetic" k2="-1" k3="1"/>
<feColorMatrix type="matrix" values="0 0 0 0 0.9625 0 0 0 0 1 0 0 0 0 0.984043 0 0 0 0.06 0"/>
<feBlend mode="normal" in2="shape" result="effect2_innerShadow_370_110"/>
</filter>
<linearGradient id="paint0_linear_370_110" x1="40.2258" y1="8.57297e-07" x2="68.9919" y2="73.9032" gradientUnits="userSpaceOnUse">
<stop offset="0.619589" stop-color="#B8AEAE"/>
<stop offset="1" stop-opacity="0"/>
</linearGradient>
</defs>
</svg>
